<svg xmlns="http://www.w3.org/2000/svg" xmlns:xlink="http://www.w3.org/1999/xlink" viewBox="0 0 386 342"><defs><style>.cls-1{isolation:isolate;}.cls-2,.cls-7{fill:#efeff0;}.cls-20,.cls-3,.cls-6,.cls-9{fill:#007cff;}.cls-3{opacity:0.36;}.cls-22,.cls-29,.cls-4{fill:#fff;}.cls-5{fill:#dddfe0;}.cls-6{opacity:0.33;}.cls-22,.cls-29,.cls-7{mix-blend-mode:screen;}.cls-10,.cls-8{fill:#1b2848;}.cls-8{opacity:0.98;}.cls-27,.cls-9{opacity:0.7;}.cls-23,.cls-26,.cls-27,.cls-30,.cls-9{mix-blend-mode:multiply;}.cls-11{fill:#e8887e;}.cls-12{fill:#aaddf9;}.cls-13{fill:#de3f2c;}.cls-14{fill:#f3c241;}.cls-15{fill:#e36831;}.cls-16{fill:#eea840;}.cls-17,.cls-18{fill:#fffad0;mix-blend-mode:overlay;}.cls-17,.cls-22{opacity:0.5;}.cls-18{opacity:0.8;}.cls-19,.cls-23{fill:#b3b5b8;}.cls-21{fill:#545456;}.cls-24{fill:url(#linear-gradient);}.cls-25{fill:#004b6d;}.cls-26{fill:#079bd7;opacity:0.4;}.cls-27{fill:#898b8e;}.cls-28{fill:url(#linear-gradient-2);}.cls-29{opacity:0.6;}.cls-30{opacity:0.9;}.cls-31{fill:#d1d3d4;}</style><linearGradient id="linear-gradient" x1="173.9" y1="153.6" x2="237.84" y2="153.6" gradientUnits="userSpaceOnUse"><stop offset="0" stop-color="#007cff"/><stop offset="1" stop-color="#1b2848"/></linearGradient><linearGradient id="linear-gradient-2" x1="182.27" y1="86.44" x2="227.97" y2="66.02" xlink:href="#linear-gradient"/></defs><g class="cls-1"><g id="Layer_1" data-name="Layer 1"><path class="cls-2" d="M204.92,320.94c.09,4.9,3.4,8.1,6.65,11.36,3.57,3.58,19.62,6.35,21.19.23a10.51,10.51,0,0,0,2.48,1.91c4.55,2.45,10,3.63,15,1.8,2.39-.87,4.6-3.92,5.49-7.11a22.89,22.89,0,0,0,3,3c4.52,3.36,11.71,6.47,17.16,3.22a10.82,10.82,0,0,0,4.57-5.11,37.08,37.08,0,0,0,22.2,4c3.22-.52,11-1.89,11.64-6.17a17.87,17.87,0,0,0,.19-2.06,37.35,37.35,0,0,0,6.75,5.15c3.9,2.5,10.52,3.27,14.82,1.56,4.13-1.65,8.71-5.17,8.21-10.18l-.09-.75a28.14,28.14,0,0,0,12.5,5.19c6.8,1,14.05-3.56,15.43-10.42a16.2,16.2,0,0,0-2.8-12.59l.24-.08a20.28,20.28,0,0,0,13.21-17.41,25.37,25.37,0,0,0-8.1-19.59c-4.37-3.89-10.39-8.13-16.49-7.43a8.64,8.64,0,0,0-.5-7.12c-1.57-2.56-3.93-3.62-6.56-4.22,3-2.55,3.64-8.23,3.07-11.64a19,19,0,0,0-6.92-11.72c-2.41-2.05-5.87-4.56-9.33-4.8.33-3.93-1.34-9.42-2.22-11.27-2.67-5.64-6.72-11.37-12.3-14.46-6.54-3.61-14.18-3.19-19.5,2.48a20.89,20.89,0,0,0-4.64,7.39c-3.81-2.4-8.32-3.7-12.56-2.47-7.48,2.16-10.81,10.61-9.24,17.91a21.8,21.8,0,0,0,2.89,6.81l-.14,0c-3.75-.42-6.93,1.83-9.28,4.58a11.61,11.61,0,0,0-2.29,6.38c-5.75-3.3-12.6-4.12-18.09.43-5.79,4.79-9.42,11-8.55,18.72.36,3.21,1.36,7,3.42,9.51a33.61,33.61,0,0,0,2.65,3.36,11.4,11.4,0,0,0-2.82,6.86c0,4.41,2.57,7.87,5.89,10.59a79.18,79.18,0,0,0,8,6.14,3.87,3.87,0,0,0-1.35.6,5,5,0,0,0-2.44,4.67,10.16,10.16,0,0,0,2.2,4.81c-5.79-2.61-12.51-3.76-16.46.8-1.81,2.1-3,6-2.72,9.57a39,39,0,0,0-3.58-2.74c-4-2.77-10.09-4.89-14.95-3-3.53,1.36-5.64,3.64-6.19,7C210,313.55,204.84,317.12,204.92,320.94Z"/><path class="cls-3" d="M204.92,320.94c.09,4.9,3.4,8.1,6.65,11.36,3.57,3.58,19.62,6.35,21.19.23a10.51,10.51,0,0,0,2.48,1.91c4.55,2.45,10,3.63,15,1.8,2.39-.87,4.6-3.92,5.49-7.11a22.89,22.89,0,0,0,3,3c4.52,3.36,11.71,6.47,17.16,3.22a10.82,10.82,0,0,0,4.57-5.11,37.08,37.08,0,0,0,22.2,4c3.22-.52,11-1.89,11.64-6.17a17.87,17.87,0,0,0,.19-2.06,37.35,37.35,0,0,0,6.75,5.15c3.9,2.5,10.52,3.27,14.82,1.56,4.13-1.65,8.71-5.17,8.21-10.18l-.09-.75a28.14,28.14,0,0,0,12.5,5.19c6.8,1,14.05-3.56,15.43-10.42a16.2,16.2,0,0,0-2.8-12.59l.24-.08a20.28,20.28,0,0,0,13.21-17.41,25.37,25.37,0,0,0-8.1-19.59c-4.37-3.89-10.39-8.13-16.49-7.43a8.64,8.64,0,0,0-.5-7.12c-1.57-2.56-3.93-3.62-6.56-4.22,3-2.55,3.64-8.23,3.07-11.64a19,19,0,0,0-6.92-11.72c-2.41-2.05-5.87-4.56-9.33-4.8.33-3.93-1.34-9.42-2.22-11.27-2.67-5.64-6.72-11.37-12.3-14.46-6.54-3.61-14.18-3.19-19.5,2.48a20.89,20.89,0,0,0-4.64,7.39c-3.81-2.4-8.32-3.7-12.56-2.47-7.48,2.16-10.81,10.61-9.24,17.91a21.8,21.8,0,0,0,2.89,6.81l-.14,0c-3.75-.42-6.93,1.83-9.28,4.58a11.61,11.61,0,0,0-2.29,6.38c-5.75-3.3-12.6-4.12-18.09.43-5.79,4.79-9.42,11-8.55,18.72.36,3.21,1.36,7,3.42,9.51a33.61,33.61,0,0,0,2.65,3.36,11.4,11.4,0,0,0-2.82,6.86c0,4.41,2.57,7.87,5.89,10.59a79.18,79.18,0,0,0,8,6.14,3.87,3.87,0,0,0-1.35.6,5,5,0,0,0-2.44,4.67,10.16,10.16,0,0,0,2.2,4.81c-5.79-2.61-12.51-3.76-16.46.8-1.81,2.1-3,6-2.72,9.57a39,39,0,0,0-3.58-2.74c-4-2.77-10.09-4.89-14.95-3-3.53,1.36-5.64,3.64-6.19,7C210,313.55,204.84,317.12,204.92,320.94Zm104.31-33.8c-6.2-6.89-14.17-.3-14.42-1-4.61-13.26.5-32.72,15.87-36,8.08-1.72,16.45,2.41,20.81,9.16a16.87,16.87,0,0,1,2.22,11.81,10,10,0,0,1-.78,2.52,16.63,16.63,0,0,1,12.36,1.86c5.68-10.56,19.91-11.23,28.19-1.71,7.73,8.89,4.77,24-7.27,26.87a.87.87,0,0,1-1.06-1.07,15,15,0,0,0-1.37-12.13c.81,8.62-2.78,17.35-10.68,21.7-6.05,3.34-12.78,1.8-18.18-1.84a17.15,17.15,0,0,1-1.52,3.84,10.9,10.9,0,0,1-2.22,5,12.17,12.17,0,0,1-8.59,4.61c-6.82,3-15.1,2.91-21-1.83-8.53-6.86-11.26-23.28-.9-30.17C302.32,287.67,305.69,287.07,309.23,287.14Zm-21-74.08c4.42-4.86,11-5.81,14.84-1.88-.32-9,4.48-16.79,15.16-15.12,11.94,1.87,14.25,15.79,14.31,25.67a.87.87,0,0,1-1.61.44c-2.62-4.69-8.36-4.29-12.58-2,5.2.29,9.91,3.06,13.42,7,4.74,5.28,4.39,12.85,5.73,19.45,2.6-3.11,2.59-7.66,3.07-11.58.06-.5,11.5,15.29-1.19,26.33A.87.87,0,0,1,338,261c-1.15-3-1.12-6-2.61-8.94a20.35,20.35,0,0,0-7.37-7.76c-6.92-4.5-16.65-5.18-22.86.82a.87.87,0,0,1-1.48-.61c-.44-5.51,3.26-8.92,6.71-12.58-6.52-.07-10.7,5-14,10.36a.87.87,0,0,1-1.35.17C286.49,235.63,279.67,222.47,288.25,213.06Zm-68.1,103.56a11.54,11.54,0,0,1,5.27-.3,4.62,4.62,0,0,1,2.76-2c5.9-1.92,11.08,2,15.16,6.12-.54-2.2-.78-4.65,0-6.46.29-5.4,7.73-8.21,12.23-7.55a20.42,20.42,0,0,1,5.94,1.93,22.09,22.09,0,0,1-.9-2.67,15.74,15.74,0,0,1,.81-10.42,13.24,13.24,0,0,1,3.28-6.45,17.92,17.92,0,0,1-5.22-2.2c-5.29-3.34-9.46-10.81-6.72-16.33-6.91-2.78-7.77-12.72-5.88-19.39,2.86-10.11,16.7-13.67,23.4-5.32a.87.87,0,0,1-.61,1.47c-4.59,0-7.14,4.67-6.82,8.85,2.48-3.1,5.68-6.36,9.75-6.53A13.83,13.83,0,0,1,284,255.08a22.29,22.29,0,0,1,.38,26.67,18.91,18.91,0,0,1-9.13,6.58c6.44,1.38,11.2,5.09,13.46,12.56,2.43,8.07-.25,17.5-8.54,20.66a9.54,9.54,0,0,1-4.7.55c.2,3.24-1.62,6.35-6,7.41-4.57,1.09-8.38-1.83-10.06-5.71a9.34,9.34,0,0,1-2.2.4,17.38,17.38,0,0,1-4.85-.41c.15,2.68-1.13,5.22-4.13,7.14-6,3.85-13.79-.33-18.56-4.22l-.39-.35a8.58,8.58,0,0,1-4,3.72c-4.61,2.24-11.27.44-12.66-4.93C211.44,320.7,216.66,317.64,220.15,316.62Z"/><path class="cls-4" d="M321.54,285a12.31,12.31,0,0,1,7.42-8.22,12.64,12.64,0,0,1,7.28-.47,6,6,0,0,1,.61.05,19.36,19.36,0,0,1,9.94,4c-.42-.76-.87-1.51-1.31-2.29s.93-2.35,1.42-3c3.85-4.92,10.1-5.89,15.69-3.94a16.49,16.49,0,0,1,10.29,9.44c2.41,5.91.47,10.61-3.22,15.3l0,0a15.5,15.5,0,0,0-1-6.1,11.89,11.89,0,0,0-4.06-5.91,8.71,8.71,0,0,0-5.31-1.64,13.07,13.07,0,0,1,1.57,4c1,3.82.15,9.12-2.4,12.21-6.34,7.68-17.19,8.14-25.75,4.34C325.76,299.82,319.66,293.05,321.54,285Z"/><path class="cls-4" d="M311.72,252.92c6-1.37,11.44,1.38,15.22,6a22.53,22.53,0,0,1,3.72,6.47,16.73,16.73,0,0,1,.16,4.6c0,.34,0,.68,0,1-2.69-6-10.11-10.09-16.49-9.58a18,18,0,0,0-15.62,10.78c0-.16-.07-.31-.1-.47C299.58,263.56,303.62,254.76,311.72,252.92Z"/><path class="cls-4" d="M271,252.68c5.08-1.15,9.67,1.17,12.86,5.12a19.09,19.09,0,0,1,3.16,5.46,14.39,14.39,0,0,1,.12,3.89c0,.29,0,.58,0,.87-2.28-5-8.55-8.52-13.95-8.1A15.22,15.22,0,0,0,260,269l-.09-.4C260.72,261.69,264.14,254.24,271,252.68Z"/><path class="cls-4" d="M305.84,289.76c4.3-1,8.19,1,10.89,4.33a15.72,15.72,0,0,1,2.67,4.63,12,12,0,0,1,.11,3.29v.74a12.68,12.68,0,0,0-11.81-6.86,12.86,12.86,0,0,0-11.18,7.72c0-.11,0-.23-.08-.34C297.15,297.38,300,291.08,305.84,289.76Z"/><path class="cls-4" d="M292.25,212.35c3.68-2.44,8-2,11.72.18a16,16,0,0,1,4.14,3.38,11.9,11.9,0,0,1,1.27,3c.09.23.18.46.26.69a12.65,12.65,0,0,0-13.47-2.22,12.89,12.89,0,0,0-7.72,11.19l-.18-.29C286.84,222.56,287.3,215.64,292.25,212.35Z"/><path class="cls-4" d="M316,198.52c4.38-.5,8,1.88,10.35,5.5a16.21,16.21,0,0,1,2.14,4.89,12.32,12.32,0,0,1-.26,3.29c0,.24-.05.49-.08.73a12.67,12.67,0,0,0-11-8.12,12.89,12.89,0,0,0-12,6.44l0-.34C306.47,205.13,310,199.19,316,198.52Z"/><path class="cls-4" d="M324.68,228.31c-4.29-1.81-9.05-2.43-12.87-.4a12.94,12.94,0,0,1,7.75-3.6c5.7-.5,10.35,2.71,13.24,7.47a20.74,20.74,0,0,1,2.62,6.42,14.46,14.46,0,0,1-.27,3.39A18.64,18.64,0,0,0,324.68,228.31Z"/><path class="cls-2" d="M207.27,310.18c-.65-4-3.16-6.7-7.37-8.32-5.79-2.23-13,.29-17.81,3.6a45.87,45.87,0,0,0-4.27,3.26c.33-4.21-1.07-8.91-3.24-11.4-4.7-5.43-12.71-4.06-19.6-1a12.09,12.09,0,0,0,2.61-5.73c.36-2.34-1.13-4.3-2.9-5.56a4.54,4.54,0,0,0-1.61-.72,95.62,95.62,0,0,0,9.51-7.31c3.95-3.24,7-7.36,7-12.62a13.57,13.57,0,0,0-3.35-8.17,39.22,39.22,0,0,0,3.15-4c2.46-3,3.65-7.51,4.08-11.33,1-9.15-3.29-16.6-10.18-22.31-6.56-5.42-14.71-4.44-21.56-.51a13.72,13.72,0,0,0-2.73-7.59c-2.8-3.28-6.59-6-11-5.46l-.18,0a26,26,0,0,0,3.45-8.13c1.87-8.69-2.1-18.76-11-21.33-5-1.46-10.42.08-15,2.95a24.83,24.83,0,0,0-5.54-8.81c-6.34-6.76-15.44-7.26-23.23-3C69.85,170.48,65,177.31,61.85,184c-1.05,2.2-3,8.75-2.65,13.42-4.11.29-8.24,3.29-11.12,5.72a22.65,22.65,0,0,0-8.23,14C39.16,221.2,40,228,43.51,231c-3.14.71-6,2-7.82,5a10.31,10.31,0,0,0-.6,8.49c-7.26-.84-14.44,4.21-19.64,8.84A30.19,30.19,0,0,0,5.8,276.7a24.19,24.19,0,0,0,15.74,20.75l.28.09a19.25,19.25,0,0,0-3.33,15c1.64,8.18,10.28,13.65,18.38,12.41,4.45-.68,10.64-2.74,14.89-6.18,0,.3-.08.6-.11.9-.59,6,4.86,10.16,9.78,12.13,5.12,2,13,1.11,17.66-1.86a44.49,44.49,0,0,0,8-6.15,19.63,19.63,0,0,0,.23,2.46c.75,5.1,10,6.73,13.86,7.36,8,1.3,18.35-.35,26.45-4.73a12.88,12.88,0,0,0,5.45,6.09c6.48,3.87,15.06.17,20.44-3.84a26.5,26.5,0,0,0,3.56-3.54c1.06,3.81,3.69,7.44,6.54,8.48,5.93,2.18,12.47.77,17.89-2.15a12.45,12.45,0,0,0,3-2.27c1.87,7.29,21,4,25.25-.28,3.87-3.88,7.81-7.69,7.92-13.53C217.77,313.29,211.61,309,207.27,310.18Z"/><path class="cls-3" d="M207.27,310.18c-.65-4-3.16-6.7-7.37-8.32-5.79-2.23-13,.29-17.81,3.6a45.87,45.87,0,0,0-4.27,3.26c.33-4.21-1.07-8.91-3.24-11.4-4.7-5.43-12.71-4.06-19.6-1a12.09,12.09,0,0,0,2.61-5.73c.36-2.34-1.13-4.3-2.9-5.56a4.54,4.54,0,0,0-1.61-.72,95.62,95.62,0,0,0,9.51-7.31c3.95-3.24,7-7.36,7-12.62a13.57,13.57,0,0,0-3.35-8.17,39.22,39.22,0,0,0,3.15-4c2.46-3,3.65-7.51,4.08-11.33,1-9.15-3.29-16.6-10.18-22.31-6.56-5.42-14.71-4.44-21.56-.51a13.72,13.72,0,0,0-2.73-7.59c-2.8-3.28-6.59-6-11-5.46l-.18,0a26,26,0,0,0,3.45-8.13c1.87-8.69-2.1-18.76-11-21.33-5-1.46-10.42.08-15,2.95a24.83,24.83,0,0,0-5.54-8.81c-6.34-6.76-15.44-7.26-23.23-3C69.85,170.48,65,177.31,61.85,184c-1.05,2.2-3,8.75-2.65,13.42-4.11.29-8.24,3.29-11.12,5.72a22.65,22.65,0,0,0-8.23,14C39.16,221.2,40,228,43.51,231c-3.14.71-6,2-7.82,5a10.31,10.31,0,0,0-.6,8.49c-7.26-.84-14.44,4.21-19.64,8.84A30.19,30.19,0,0,0,5.8,276.7a24.19,24.19,0,0,0,15.74,20.75l.28.09a19.25,19.25,0,0,0-3.33,15c1.64,8.18,10.28,13.65,18.38,12.41,4.45-.68,10.64-2.74,14.89-6.18,0,.3-.08.6-.11.9-.59,6,4.86,10.16,9.78,12.13,5.12,2,13,1.11,17.66-1.86a44.49,44.49,0,0,0,8-6.15,19.63,19.63,0,0,0,.23,2.46c.75,5.1,10,6.73,13.86,7.36,8,1.3,18.35-.35,26.45-4.73a12.88,12.88,0,0,0,5.45,6.09c6.48,3.87,15.06.17,20.44-3.84a26.5,26.5,0,0,0,3.56-3.54c1.06,3.81,3.69,7.44,6.54,8.48,5.93,2.18,12.47.77,17.89-2.15a12.45,12.45,0,0,0,3-2.27c1.87,7.29,21,4,25.25-.28,3.87-3.88,7.81-7.69,7.92-13.53C217.77,313.29,211.61,309,207.27,310.18ZM103.59,279.5c12.35,8.2,9.09,27.77-1.07,35.93-7,5.65-16.91,5.71-25,2.19a14.55,14.55,0,0,1-10.23-5.49,13.1,13.1,0,0,1-2.65-6,21,21,0,0,1-1.81-4.58c-6.43,4.34-14.45,6.18-21.66,2.2-9.4-5.19-13.68-15.58-12.72-25.85a17.85,17.85,0,0,0-1.64,14.45,1,1,0,0,1-1.26,1.26c-14.34-3.35-17.87-21.41-8.66-32,9.87-11.33,26.82-10.54,33.59,2a19.83,19.83,0,0,1,14.72-2.21,11.77,11.77,0,0,1-.92-3,20,20,0,0,1,2.64-14.07c5.19-8,15.16-13,24.79-10.91,18.31,3.91,24.4,27.1,18.91,42.9-.3.88-9.79-7-17.18,1.24C97.63,277.5,101.64,278.2,103.59,279.5Zm6.74-55.18a1,1,0,0,1-1.62-.2c-3.89-6.35-8.88-12.43-16.64-12.34,4.11,4.36,8.52,8.42,8,15a1,1,0,0,1-1.76.73c-7.41-7.15-19-6.33-27.24-1a24.17,24.17,0,0,0-8.78,9.23c-1.77,3.54-1.74,7.12-3.11,10.66a1,1,0,0,1-1.72.45c-15.12-13.15-1.48-32-1.41-31.36.57,4.66.56,10.08,3.66,13.79,1.59-7.86,1.17-16.89,6.82-23.18,4.18-4.66,9.8-8,16-8.31-5-2.73-11.86-3.21-15,2.37a1,1,0,0,1-1.92-.52c.08-11.77,2.83-28.36,17-30.58,12.73-2,18.44,7.31,18.06,18,4.58-4.68,12.41-3.54,17.68,2.24C128.62,200.54,120.49,216.21,110.33,224.32Zm98.2,98.54c-1.66,6.39-9.59,8.54-15.09,5.87a10.18,10.18,0,0,1-4.78-4.43l-.48.41c-5.68,4.64-14.93,9.62-22.11,5-3.57-2.29-5.09-5.31-4.91-8.5a20.62,20.62,0,0,1-5.78.48,10.69,10.69,0,0,1-2.62-.47c-2,4.62-6.55,8.09-12,6.8-5.26-1.26-7.42-5-7.19-8.83a11.41,11.41,0,0,1-5.6-.65c-9.87-3.77-13.06-15-10.17-24.61,2.68-8.9,8.36-13.32,16-15A22.53,22.53,0,0,1,123,271.15a26.54,26.54,0,0,1,.45-31.77,16.45,16.45,0,0,1,13.66-6.8c4.85.2,8.66,4.08,11.61,7.77.39-5-2.65-10.52-8.11-10.53a1,1,0,0,1-.73-1.76c8-9.94,24.47-5.7,27.88,6.34,2.25,7.94,1.23,19.78-7,23.1,3.27,6.57-1.7,15.47-8,19.45a21,21,0,0,1-6.23,2.63,15.78,15.78,0,0,1,3.91,7.68,18.69,18.69,0,0,1,1,12.42,25.87,25.87,0,0,1-1.07,3.18,24.19,24.19,0,0,1,7.09-2.31c5.35-.78,14.22,2.57,14.56,9,.88,2.16.6,5.07,0,7.7,4.86-4.95,11-9.59,18.07-7.3a5.53,5.53,0,0,1,3.28,2.39,13.43,13.43,0,0,1,6.28.36C203.69,313.91,209.9,317.56,208.53,322.86Z"/><path class="cls-4" d="M78.74,275c-1-4.11-4.82-8.54-8.84-9.79-3.37-1-6-1.28-8.67-.56-.25,0-.49,0-.73.06a23.11,23.11,0,0,0-11.84,4.81c.5-.9,1-1.8,1.56-2.72.62-1.1-1.1-2.8-1.69-3.55-4.59-5.86-12-7-18.7-4.69a19.62,19.62,0,0,0-12.25,11.24c-2.88,7-.56,12.64,3.83,18.22,0,0,0,0,0,0a18.35,18.35,0,0,1,1.21-7.27,14.15,14.15,0,0,1,4.83-7,10.38,10.38,0,0,1,6.33-1.95,15.56,15.56,0,0,0-1.88,4.8c-1.15,4.55-.17,10.86,2.87,14.54,7.55,9.15,20.47,9.7,30.67,5.18C73.71,292.69,81,284.61,78.74,275Z"/><path class="cls-4" d="M90.43,236.81c-7.15-1.63-13.62,1.64-18.12,7.2a26.49,26.49,0,0,0-4.44,7.7,20,20,0,0,0-.18,5.48v1.23c3.21-7.11,12.06-12,19.66-11.42A21.42,21.42,0,0,1,106,259.85c0-.19.08-.37.12-.56C104.9,249.49,100.09,239,90.43,236.81Z"/><path class="cls-4" d="M139,236.53c-6.05-1.38-11.51,1.39-15.32,6.09a22.36,22.36,0,0,0-3.76,6.51,17,17,0,0,0-.15,4.63v1c2.72-6,10.2-10.16,16.62-9.65A18.09,18.09,0,0,1,152.08,256c0-.16.07-.31.1-.47C151.19,247.25,147.12,238.38,139,236.53Z"/><path class="cls-4" d="M97.44,280.7c-5.12-1.17-9.75,1.18-13,5.15a19.1,19.1,0,0,0-3.18,5.52,14.19,14.19,0,0,0-.13,3.92v.88c2.3-5.09,8.63-8.6,14.07-8.17a15.33,15.33,0,0,1,13.32,9.19l.09-.4C107.8,289.78,104.35,282.26,97.44,280.7Z"/><path class="cls-4" d="M113.63,188.48c-4.38-2.91-9.53-2.36-14,.21a18.91,18.91,0,0,0-4.93,4,14.25,14.25,0,0,0-1.51,3.62c-.11.27-.21.55-.31.82,4-3.94,11.12-5,16-2.64a15.34,15.34,0,0,1,9.19,13.33l.22-.35C120.09,200.64,119.53,192.4,113.63,188.48Z"/><path class="cls-4" d="M85.4,172c-5.22-.59-9.56,2.25-12.32,6.56a19.26,19.26,0,0,0-2.56,5.83,14.58,14.58,0,0,0,.31,3.92c0,.28.06.58.1.87,1.72-5.32,7.63-9.5,13.08-9.67a15.32,15.32,0,0,1,14.25,7.67c0-.14,0-.27,0-.41C96.7,179.88,92.44,172.79,85.4,172Z"/><path class="cls-4" d="M75,207.49c5.1-2.16,10.78-2.89,15.32-.48a15.34,15.34,0,0,0-9.23-4.28c-6.79-.6-12.33,3.22-15.77,8.89a24.77,24.77,0,0,0-3.12,7.64,17.94,17.94,0,0,0,.31,4.05A22.2,22.2,0,0,1,75,207.49Z"/><path class="cls-5" d="M302.46,308.55a23.75,23.75,0,0,0-10.12-2.62c2.74-4.19,4-9.18,2.53-14.24-2.06-7.08-10.6-10.05-17.19-9.16a15.06,15.06,0,0,0-4,1.15c.52-4-.08-8.08-2-10.5-3.25-4.07-7.92-4.07-11.86-2.1a16.26,16.26,0,0,0-3-5.7c-4.05-5.27-10.1-5.06-15.38-1.85A14.91,14.91,0,0,0,234.35,275a8.66,8.66,0,0,0,.14,2,19.48,19.48,0,0,0-6.5,4.2c.9-4.78-4-8.95-9-9.68l.09-.24c3.15-8.75,3.22-21-4.35-27.4a14.14,14.14,0,0,0-13.58-3,13.89,13.89,0,0,0-6.33-9.41c-5.32-3.37-11.89-1-16.63,2.2-6.35,4.26-10.4,12.62-9.57,20.14-2.44.86-4.63,2.91-6.25,4.61C159.7,261.23,158,264,157.7,268a12,12,0,0,0,1,5.25,9.45,9.45,0,0,0-5.3,3.3,13.22,13.22,0,0,0-1.5,2.26,14.15,14.15,0,0,0-5.62-3.12c-5.95-1.77-12.1,1.49-16.68,4.95-5.22,3.95-8.33,11.57-7.56,18.14h-.3a26.51,26.51,0,0,0-12.86,4.2c-2.9,1.87-4.83,5.18-6.08,8.29a7.46,7.46,0,0,0,.59,7.37c-3.23.33-6.73.28-9.22,2.66-2,1.95-2.92,6.21-1.48,8.61,2,3.3,8.42,3.63,11.67,4.1,6.48.93,12.88,2,19.4,2.69,26.79,2.68,53.6,2,80.48,1.94,26.11-.08,52.39-.86,78.32-4.08,5.95-.74,11.8-1.91,17.65-3.21,3.25-.72,6.59-1.84,8.57-4.72C313.69,319.54,309.26,312,302.46,308.55Z"/><path class="cls-6" d="M302.46,308.55a23.75,23.75,0,0,0-10.12-2.62c2.74-4.19,4-9.18,2.53-14.24-2.06-7.08-10.6-10.05-17.19-9.16a15.06,15.06,0,0,0-4,1.15c.52-4-.08-8.08-2-10.5-3.25-4.07-7.92-4.07-11.86-2.1a16.26,16.26,0,0,0-3-5.7c-4.05-5.27-10.1-5.06-15.38-1.85A14.91,14.91,0,0,0,234.35,275a8.66,8.66,0,0,0,.14,2,19.48,19.48,0,0,0-6.5,4.2c.9-4.78-4-8.95-9-9.68l.09-.24c3.15-8.75,3.22-21-4.35-27.4a14.14,14.14,0,0,0-13.58-3,13.89,13.89,0,0,0-6.33-9.41c-5.32-3.37-11.89-1-16.63,2.2-6.35,4.26-10.4,12.62-9.57,20.14-2.44.86-4.63,2.91-6.25,4.61C159.7,261.23,158,264,157.7,268a12,12,0,0,0,1,5.25,9.45,9.45,0,0,0-5.3,3.3,13.22,13.22,0,0,0-1.5,2.26,14.15,14.15,0,0,0-5.62-3.12c-5.95-1.77-12.1,1.49-16.68,4.95-5.22,3.95-8.33,11.57-7.56,18.14h-.3a26.51,26.51,0,0,0-12.86,4.2c-2.9,1.87-4.83,5.18-6.08,8.29a7.46,7.46,0,0,0,.59,7.37c-3.23.33-6.73.28-9.22,2.66-2,1.95-2.92,6.21-1.48,8.61,2,3.3,8.42,3.63,11.67,4.1,6.48.93,12.88,2,19.4,2.69,26.79,2.68,53.6,2,80.48,1.94,26.11-.08,52.39-.86,78.32-4.08,5.95-.74,11.8-1.91,17.65-3.21,3.25-.72,6.59-1.84,8.57-4.72C313.69,319.54,309.26,312,302.46,308.55Zm-143.75,2.66c-2.16,2.11-4.15,2.79-6.08,2.68,2.68,3.5,4,8,1.58,12.12-3.68,6.35-11.14,8.55-18.13,8.42-6.48-.12-13.81-1.86-18.32-6.94-3.6-4.05-3.16-8-.08-11.37a11.56,11.56,0,0,0-7.4,6.14c-.37.78-1.46.32-1.51-.41-.43-6.23,1.8-12.32,7.18-15.85,2.64-1.73,5.84-3.37,9.09-3.28a65.81,65.81,0,0,1,7.69,1c-6-4-8.11-12.82-2.22-18.56,7-6.81,17.16-4.31,19.72,3.88,1.28-4.16,3.58-8.12,7.32-10.37,2.15-1.29,4.89-2.55,7.46-2.3a18.94,18.94,0,0,1,3.14.62.81.81,0,0,1,.07-.57c-3.25-3.29-4.43-7.94-2.07-13.09,3.53-7.71,11.79-12.74,20.15-13.42-4.33-1.81-9.58-1.77-12.89,1.94a.81.81,0,0,1-1.38-.57c.06-8.39,5.21-16.14,13.72-17.82,7.38-1.46,12.59,3.55,13.14,10.41,9.16-.3,16.58,6.25,13.3,16.13a.82.82,0,0,1-1.48.19c-2.05-3.25-4.84-5.3-8.48-5.47,2.45,2.75,4.68,6.17,4.5,9.91-.24,4.77-3,8.16-6.57,11.07-5.45,4.4-14.16,6.48-21.49,5.48a7.59,7.59,0,0,1,.8,1.93,16.8,16.8,0,0,1-5.94,16.64c-3.7,2.92-7.4,4.18-12.11,3.18l-.57-.13A9,9,0,0,1,158.71,311.21Zm135,15.56a34.4,34.4,0,0,1-17.64,2.57c-5.51-.83-9.05-4.08-12-8.46-1.16,2-2.16,4.25-4,5.69a22.55,22.55,0,0,1-6.57,3.66c-4,1.33-10.24,2.93-14,.2-5.37-3.87-2.83-10.62,1.18-14.61-5.35-.12-7.45-4.39-7-9a14.27,14.27,0,0,1-1.26,2.5c-5.29,8.26-15.71,14.16-25.72,12.82-3,11.76-29.25,14.29-34.89,2.4a16.14,16.14,0,0,0,1,7.92.82.82,0,0,1-1,1c-5.14-1.78-8.64-7-8.95-12.44-.25-4.09,0-10.13,4.2-12.27a.81.81,0,0,1,1.18.49,10.77,10.77,0,0,0,1.53,4.44c1.65-5.83,5.72-11.41,12.09-12.4a14.86,14.86,0,0,1,9.23,1.48,19.76,19.76,0,0,1,1.23-4.5c2.91-7.31,12-15.14,20.18-12.41-1.77-2.94-5.15-4.78-8.54-2.87a.81.81,0,0,1-1-1.27c5.93-5.69,18.44-10.58,23.26-.49A20.52,20.52,0,0,1,228,288a8.19,8.19,0,0,1,4.65,3.33,15.29,15.29,0,0,1,7.43-8.47c-4-5.69,0-15.89,7.85-14.93,4.6.56,8.72,4.66,9.83,9.18a10.25,10.25,0,0,1,7.5.41c4.84,2,7.3,6.55,8.11,11.47,3.35-2.68,7.66-3.52,11.35.11,4.85,4.77,3.09,11.89-1.15,16.41,2.13-.16,4.23.52,5.2,2.77a5,5,0,0,1,.29,3.57c4.18-1.33,8.53-.85,11.09,3.76S297.59,325.12,293.74,326.77Z"/><path class="cls-7" d="M197.13,254.73c-2.18-2.44-6.22-3.16-9.3-3.14a18.14,18.14,0,0,0-11.13,4.14c-5.94,4.46-9.58,13.11-6.9,20.3.22.58,1.13-.59,1.17-.85,1.26-7.59,5.29-13.26,12.76-15.74a26.69,26.69,0,0,1,9.87-1.31c2.78.17,4.08,1.46,6.1,3.05.29.23.76-.5.75-.73A6.65,6.65,0,0,0,197.13,254.73Z"/><path class="cls-7" d="M159.89,282.26a22.74,22.74,0,0,0-5.74,5.95,18.38,18.38,0,0,0-1.26,4.79c5.12-6.4,13.9-8.64,20.71-3.92a1.75,1.75,0,0,0,.25-.16C173.21,282.44,165.82,278,159.89,282.26Z"/><path class="cls-7" d="M148.41,289.2a1.17,1.17,0,0,1,.25.11.52.52,0,0,0,0-.11.16.16,0,0,0,0-.1v0a3.39,3.39,0,0,0-1.49-2.05.18.18,0,0,0-.1,0c-1.87-2.32-3.91-4.1-7.35-4.14-2.62,0-5.2,1.92-7,3.66-3.65,3.59-3.6,9.37-1.07,13.64A14.6,14.6,0,0,1,148.41,289.2Z"/><path class="cls-7" d="M228.16,297.25a10.3,10.3,0,0,0-2.43-3.81C221,288.78,215.09,288.61,209,290c-9.57,2.21-14.54,12.08-13,21.16a10.23,10.23,0,0,0-5.55-2.65c-3.15-.59-6.4,1-8.89,2.74-4.58,3.26-5.5,10.25-1.13,14,4.82,4.09,13.42,3.68,18.49.39a15.44,15.44,0,0,0,5.71-6.28c.27-.55.65-1.25,1-2,2.89,1.77,7.06,1.55,10.46.69,4.08-1,9.5-4.62,11.65-8.32C229.54,306.57,230.84,300.38,228.16,297.25Z"/><path class="cls-7" d="M283.08,313.53c-.82-4.53-4.21-4.6-7.5-3.51a19.4,19.4,0,0,0,3.56-6c1.38-3.52,1.73-9.9-2.8-11.33A12.69,12.69,0,0,0,266,294a13.51,13.51,0,0,0-2-7.87,9.51,9.51,0,0,0-7.59-4.54,8.84,8.84,0,0,0-2.18-6.85c-2.27-2.31-6-2.13-8.6-.55a9.32,9.32,0,0,0-3.86,6.94c-.1,1.55,5.61.56,7.13,1.46-1.31-.77-6.66,4.17-7.68,5-4.11,3.51-8.27,9.13-7.36,14.87.86,5.44,6.59,8.41,11.64,8.92-.67.83-1.29,1.68-1.85,2.5-2.86,4.22-2.82,10.52,3.05,11.52,6.63,1.13,12.83-4.32,17-8.61.26-.27.6-.64,1-1.08a14.88,14.88,0,0,0,.86,2.74c2.05,4.76,8.36,4.66,12.46,3.09C280.9,320.42,283.68,316.79,283.08,313.53Z"/><path class="cls-4" d="M224.87,92.12s25.52,9,25.52,70.3h-1.31l-21.25-25.7-6.6-.43Z"/><path class="cls-8" d="M250.4,162.87h-1.32a.46.46,0,0,1-.35-.16l-21.12-25.55-6.41-.42a.45.45,0,0,1-.42-.48l3.64-44.18a.44.44,0,0,1,.2-.34.49.49,0,0,1,.39,0c.27.1,6.6,2.42,13,12.35,5.85,9.08,12.82,26.56,12.84,58.26a.49.49,0,0,1,0,.12A.45.45,0,0,1,250.4,162.87Zm-1.11-.9h.65c-.12-54.9-21-67.42-24.68-69.19l-3.55,43.09,6.15.4a.46.46,0,0,1,.32.17Z"/><path class="cls-9" d="M237.59,110.8a31.31,31.31,0,0,1-3-10.72c-5.22-6.37-9.71-8-9.71-8l-3.64,44.17,6.6.43,21.25,25.7H250C249.43,159.63,247.19,128.93,237.59,110.8Z"/><path class="cls-4" d="M185.34,92.12s-25.52,9-25.52,70.3h1.31l21.25-25.7,6.6-.43Z"/><path class="cls-10" d="M161.13,162.87h-1.31a.45.45,0,0,1-.45-.45c0-17.54,2.22-41.9,12.83-58.38,6.39-9.93,12.72-12.25,13-12.35a.48.48,0,0,1,.39,0,.44.44,0,0,1,.2.34l3.64,44.18a.5.5,0,0,1-.1.33.48.48,0,0,1-.32.15l-6.4.42-21.13,25.55A.44.44,0,0,1,161.13,162.87Zm-.86-.9h.65L182,136.44a.44.44,0,0,1,.32-.17l6.14-.4-3.55-43.09C181.27,94.57,160.38,107.15,160.27,162Z"/><path class="cls-9" d="M172.61,110.8a31.32,31.32,0,0,0,3-10.72c5.21-6.37,9.71-8,9.71-8L189,136.29l-6.6.43-21.25,25.7h-.93C160.78,159.63,163,128.93,172.61,110.8Z"/><path class="cls-11" d="M214.68,230a48.32,48.32,0,0,0-.14-6.91c-.06-1.13-.11-2.27-.23-3.4a17.52,17.52,0,0,0-.33-2.93s0,0,0,0a.56.56,0,0,0-.1-.28s0,0-.05,0c-.45,1.77-.16,3.93-.11,5.74a47.89,47.89,0,0,0,.41,7.76C214.21,230.3,214.64,230.43,214.68,230Z"/><path class="cls-12" d="M217,230.31c0,.56-.09,1.13-.13,1.7a27.36,27.36,0,0,0,.1,3.62c.05.4.52.5.57,0a28.94,28.94,0,0,0,.15-3.48c-.11-1-.22-2-.34-3-.07-.64-.17-1.27-.28-1.91C217.09,228.27,217.1,229.29,217,230.31Z"/><path class="cls-13" d="M220.1,251.42c.19-3.36.4-6.72.32-10.08a53.5,53.5,0,0,0-.53-9.14,0,0,0,1,0,0,0c0-.08,0-.05,0-.14a0,0,0,0,0,0,0,14.69,14.69,0,0,0-.25,3.38c-.09,1.78-.08,3.56-.07,5.34,0,3.54-.23,7.06-.11,10.6C219.42,251.87,220.07,252,220.1,251.42Z"/><path class="cls-14" d="M216.5,240.75c-.13,1.11-.25,2.22-.35,3.32,0,.07,0,.13,0,.2a26.61,26.61,0,0,0,0,3.68c0,.38.45.43.51,0a52,52,0,0,0,.19-9.9h0A16.36,16.36,0,0,0,216.5,240.75Z"/><path class="cls-13" d="M214.76,239.2a19,19,0,0,0,.23-3.46c0-.18,0-.36,0-.54-.13-.95-.26-1.9-.37-2.85a13.62,13.62,0,0,0-.15,2.5,32.82,32.82,0,0,0-.13,4.32C214.35,239.49,214.7,239.53,214.76,239.2Z"/><path class="cls-12" d="M226.7,237.66a29.88,29.88,0,0,0-.68,4.67c0,.23-.07.46-.1.69-.17,1.67-.32,3.34-.44,5,0,.27.35.59.45.2a29.68,29.68,0,0,0,.8-5.78c.06-1.07.1-2.14.14-3.21,0-.33,0-.6,0-.93C226.86,238.39,226.77,237.91,226.7,237.66Z"/><path class="cls-11" d="M223.29,250.56c-.13,1.12-.3,2.23-.44,3.35-.2,1.62-.33,3.25-.61,4.86.09.17.3.26.37,0a30.82,30.82,0,0,0,.94-5c0-.23,0-.46,0-.7,0-1.64.13-3.33,0-5C223.43,248.88,223.39,249.75,223.29,250.56Z"/><path class="cls-13" d="M227.65,243.53a16.63,16.63,0,0,0,.5-3.91,13.56,13.56,0,0,0-.16-3.71s-.06,0-.07,0a46,46,0,0,0-.74,7.49C227.18,243.69,227.56,243.86,227.65,243.53Z"/><path class="cls-11" d="M230.51,237.74a64.2,64.2,0,0,0,.49-9.6c0-1.34,0-2.69-.05-4,0-1.18-.3-2.34-.33-3.52v0c0,.18-.06.36-.08.55h0c0,.68,0,1.35-.08,2-.11,1.6-.21,3.2-.28,4.8a91.06,91.06,0,0,0-.17,9.77C230,238.07,230.46,238.13,230.51,237.74Z"/><path class="cls-14" d="M228.67,234.53a14.94,14.94,0,0,0,.27-2.09c0-.8,0-1.6-.11-2.4a7.7,7.7,0,0,0-.26,1.47,13.14,13.14,0,0,0-.25,2.93C228.33,234.64,228.61,234.78,228.67,234.53Z"/><path class="cls-13" d="M233.71,219.43a17.73,17.73,0,0,0,.28-3.08,31,31,0,0,0-.55-4.42,20,20,0,0,0-.1,2.78c0,1.56-.27,3.13-.17,4.69C233.2,219.8,233.63,219.84,233.71,219.43Z"/><path class="cls-14" d="M232,230.15a62.15,62.15,0,0,0,.34-7.08c0-1.24-.05-2.48-.15-3.71-.06-.62-.09-1.24-.16-1.86l-.12-.91c0-.18-.15-.63,0-.17,0,0,0,0,0,0a1.62,1.62,0,0,0-.09-.46s0,0-.06,0a19.33,19.33,0,0,0-.08,2c0,.47,0,.94,0,1.39,0,1.24,0,2.47,0,3.7,0,2.37-.19,4.74-.13,7.1C231.65,230.4,232,230.45,232,230.15Z"/><path class="cls-12" d="M235.61,211.4a24.4,24.4,0,0,0,.11-4.1c0-.8-.13-1.61-.22-2.41a23.28,23.28,0,0,1-.37-2.75s-.07-.1-.08,0a17.33,17.33,0,0,0,0,3.81c.06,1.81-.06,3.65.15,5.45C235.22,211.67,235.57,211.74,235.61,211.4Z"/><path class="cls-11" d="M233.81,207.75a10,10,0,0,0,.1-1.44c0-.55-.21-1-.17-1.59,0-.05-.07-.11-.09,0a6.13,6.13,0,0,0-.09,1.35c0,.57,0,1.14,0,1.71C233.62,207.89,233.79,207.92,233.81,207.75Z"/><path class="cls-14" d="M213,215.59a47.24,47.24,0,0,0-.46-9.22s0,0,0,0a2.44,2.44,0,0,1,0-.27s0-.08-.05,0a19.87,19.87,0,0,0-.09,4,52.73,52.73,0,0,0,.21,5.48C212.66,215.82,213,215.89,213,215.59Z"/><path class="cls-13" d="M212.07,221c0,.74,0,1.49-.07,2.23.06.49.13,1,.2,1.46.05.31.46.42.47,0,0-1.62,0-3.22-.14-4.84-.05-.78-.18-1.56-.25-2.34-.05-.44-.07-.88-.11-1.32,0,0-.06-.33-.12-.56C212,217.45,212.11,219.23,212.07,221Z"/><path class="cls-13" d="M222.85,247.35c.6-2.62,1.14-5.21,1.53-7.82-.07,1.8-.18,3.6-.31,5.4,0,.1.13.29.2.13a14,14,0,0,0,.7-3.16c.27-1.67.77-3.33.88-5s.43-3.28.54-4.91c.17,1,.33,2,.53,2.93a.1.1,0,0,0,.2,0c0-2,.63-4.08.82-6.08a21.4,21.4,0,0,0,.17-4.2,10.61,10.61,0,0,1,.63,3c0,.14.21.27.26.07a35.49,35.49,0,0,0,.57-4.12,5.38,5.38,0,0,0-.9-2.94c-.7-1.34.54-2.14,1-3.36a6.8,6.8,0,0,1,.12,1.21c0,.06.08.19.14.09,1-1.89,1.89-5.28,1.17-7.78a4.09,4.09,0,0,1,.66,1.26c0,.15.2.13.22,0a6.12,6.12,0,0,0-.42-3,15.65,15.65,0,0,0-.69-1.43,2.94,2.94,0,0,1,.24-2.81c.31-.73,1-1.55,1.49-2.42a13.35,13.35,0,0,1,.12,1.76c0,.11.16.36.25.16a26.55,26.55,0,0,0,2.16-5.2,5.56,5.56,0,0,0-.12-2.4,11.89,11.89,0,0,0-.47-1.54,2.59,2.59,0,0,0-.14-.29,4.8,4.8,0,0,0,1.41.57,5.13,5.13,0,0,1-1.49-2.48c-.16-.53-.28-1.08-.39-1.62s-.27-1-.39-1.44a11.56,11.56,0,0,0-2.13-4.83c-2.42-2.86-6.46-3.78-10-3.45-1.79.16-3.07,1.37-4.34,2.52a15.1,15.1,0,0,0-3.47,4.65,8.5,8.5,0,0,0-.55,4.52c.1,1,.27,1.87.43,2.81a7,7,0,0,1-.23,2.82c0,.11,0,.35.19.33a2.29,2.29,0,0,0,1.42-.7,9,9,0,0,1-1.13,3.58c-.52,1.15-1,2.56.27,3.45.49.36,1.41.57,1.73,1.11.13.21-.24.63-.36.79a3.13,3.13,0,0,0-.54,1.67,4.68,4.68,0,0,0,.37,1.59l.18.34a4.33,4.33,0,0,1,.73,1.71,4.94,4.94,0,0,1-.63,2.79,2.61,2.61,0,0,0,1-.61,14,14,0,0,0-.51,2.64,6.07,6.07,0,0,0,.41,2.09c.44.9.9,1.8,1.27,2.74.1-.44.19-.88.26-1.33a16,16,0,0,0,.76,1.92,19.75,19.75,0,0,1,1.39,4.16,6.33,6.33,0,0,0,.47,2.21s.1.1.15,0a3,3,0,0,0,.43-1.51l.14.54c.26,1.07.39,2.16.62,3.23s.39,2.43.62,3.63c.19,1,.09,2,.26,2.93,0,.07.11.22.19.12a3.31,3.31,0,0,0,.45-.78,66.71,66.71,0,0,1-.79,9.6C222.5,247.41,222.79,247.61,222.85,247.35Z"/><path class="cls-15" d="M216.09,213.81a3.43,3.43,0,0,0,.17-2.82,3.59,3.59,0,0,1,.26-3.61c0-.06.1,0,.13,0a49,49,0,0,0,3.64,6.57c-.17-1.35-.57-2.65-.81-4,0-.08.07-.24.15-.12a14.59,14.59,0,0,1,2.68,5.57c.12.55.15,1.14.31,1.69a17.63,17.63,0,0,0,.26-4.47c0-.13.14-.24.17-.07.24,1.53.61,3,.8,4.56a20.22,20.22,0,0,0,.67,3.87c.31-1.44.07-2.94.34-4.39,0-.08.13-.13.16,0,.55,2,.69,4.08,1.14,6.1a30.49,30.49,0,0,1,1.09-4.53c.48-1.54,1.13-3.15.89-4.79,0-.07.07-.24.14-.12a6.17,6.17,0,0,1,.67,2.09,12.65,12.65,0,0,0,.1-3.93,12.59,12.59,0,0,1-.4-3.23c0-.07.08-.19.15-.08.28.39.49.82.75,1.22,0-.75-.05-1.51,0-2.26,0-.12.14-.18.17,0,.18,1.28,1.32,2.06,1.76,3.24a9.33,9.33,0,0,1,.43,1.79h0a6.12,6.12,0,0,0-.42-3,15.65,15.65,0,0,0-.69-1.43,2.94,2.94,0,0,1,.24-2.81c.31-.73,1-1.55,1.49-2.42a13.35,13.35,0,0,1,.12,1.76c0,.11.16.36.25.16a26.55,26.55,0,0,0,2.16-5.2,5.56,5.56,0,0,0-.12-2.4,11.89,11.89,0,0,0-.47-1.54,2.59,2.59,0,0,0-.14-.29,4.8,4.8,0,0,0,1.41.57,5.13,5.13,0,0,1-1.49-2.48c-.16-.53-.28-1.08-.39-1.62s-.27-1-.39-1.44a11.56,11.56,0,0,0-2.13-4.83c-2.42-2.86-6.46-3.78-10-3.45-1.79.16-3.07,1.37-4.34,2.52a15.1,15.1,0,0,0-3.47,4.65,8.5,8.5,0,0,0-.55,4.52c.1,1,.27,1.87.43,2.81a7,7,0,0,1-.23,2.82c0,.11,0,.35.19.33a2.29,2.29,0,0,0,1.42-.7,9,9,0,0,1-1.13,3.58c-.52,1.15-1,2.56.27,3.45.49.36,1.41.57,1.73,1.11.13.21-.24.63-.36.79a3.13,3.13,0,0,0-.54,1.67,4.68,4.68,0,0,0,.37,1.59l.18.34a4.33,4.33,0,0,1,.73,1.71,4,4,0,0,1-.07,1.28C216,214,216.05,213.89,216.09,213.81Z"/><path class="cls-16" d="M226.13,218c0,.16.21.12.24,0a64.78,64.78,0,0,0,.72-6.51,20.13,20.13,0,0,0,0-3.64,2.33,2.33,0,0,0,.3.53c.08.09.14,0,.14-.1,0-.38,0-.76,0-1.14a3.72,3.72,0,0,0,.32.63c.08.12.21.08.22-.06a34.57,34.57,0,0,1,.9-4.37c.06-.28.16-.6.24-.94a3.73,3.73,0,0,0,.3,1.44c.05.08.16.11.2,0a20.63,20.63,0,0,0,1.63-4.13,4.65,4.65,0,0,0,.09-1.1,4.7,4.7,0,0,0,1.64.75,2.28,2.28,0,0,1-.63-1.15,2,2,0,0,1,0-.59.63.63,0,0,1,.06-.29l0,0a3.15,3.15,0,0,1,.32-.76l.39-1a8.74,8.74,0,0,0,.89-2.86,7,7,0,0,0-.53-3.51,3.68,3.68,0,0,1,.91.7c-.33-.36-.4-1.51-.57-2a9.18,9.18,0,0,0-.9-1.8,10.84,10.84,0,0,0-2.86-2.79,11.65,11.65,0,0,0-17.54,4.58,11.29,11.29,0,0,0-.74,2,27.68,27.68,0,0,0-.05,2.89,5,5,0,0,1-.56,2.61,12.43,12.43,0,0,1,1.07-1c.09-.07.14.09.12.15-.12.5-.31,1-.45,1.47a2.57,2.57,0,0,0,.12,1.77l.06.13.26.36a2.26,2.26,0,0,1,.36,1.21c.11.32.22.64.31,1a3.45,3.45,0,0,0,1.16-1,1.4,1.4,0,0,0,.1-.16,1.82,1.82,0,0,1-.05,1.21,4.43,4.43,0,0,1-.2.45,3.3,3.3,0,0,0,.67,2.29c.08.1,1,1.3,1.43,2a4.89,4.89,0,0,0,.38-1.78c.39.72.83,1.4,1.28,2.09.7,1,1.2,2.16,1.85,3.22.08.14.26.09.26-.08a19.62,19.62,0,0,0-.4-4.14c.19.39.38.78.55,1.18a23.48,23.48,0,0,0,1.47,3.55.1.1,0,0,0,.19,0,3.74,3.74,0,0,0-.07-1.33l0-.72c.32,1.11.63,2.22.84,3.35,0,.18.24.24.26,0,.13-1.37.15-2.76.26-4.13.11.67.23,1.33.34,2,.15.9.19,1.85.4,2.74a.12.12,0,0,0,.24,0,6.94,6.94,0,0,0,.38-2.1,32.58,32.58,0,0,1,1.11,4.71C225.79,215.23,225.82,216.68,226.13,218Z"/><path class="cls-17" d="M214.61,195.79a16.21,16.21,0,0,1,.67-4.68l.47,2.11s0-.13,0-.35a7.8,7.8,0,0,1-.13-2.5,7.33,7.33,0,0,1,2.72-4.8c2.55-1.87,5.73-.9,8.11.86a6.62,6.62,0,0,0-3.43-2.35,8.87,8.87,0,0,1,6.66,3.57s-1.11-3.51-6.72-5.16a12.26,12.26,0,0,1,10.62,5.76,10.27,10.27,0,0,0-6.55-6,10.66,10.66,0,0,0-12.22,3.39s-2.69,3.1-2.25,6.8c0,0,.75-3.6,2-5.09C214.51,187.31,212.84,190.69,214.61,195.79Z"/><path class="cls-17" d="M226.17,210.19c0,.12.14.09.16,0,.15-1.26.45-2.49.67-3.73.15-.84.33-1.67.55-2.49.11-.41.17-1.17.32-.41,0,.11.16.26.24.11a16.59,16.59,0,0,0,1.43-5.42c.13.4.2.84.29,1.22,0,.21.33.44.41.11.17-.76.24-1.53.44-2.3,0-.17.1-.33.14-.5.13.56.23,1,.28,1.19s.15.16.19,0a9.6,9.6,0,0,0,.1-8.21c-.08-.19-.27,0-.25.12a15.1,15.1,0,0,1,.15,2.23,3.68,3.68,0,0,0-.57-1.07.11.11,0,0,0-.2.06,4.68,4.68,0,0,0-.07,1.19,4,4,0,0,0-1.06-1.27,4.62,4.62,0,0,0-1.3-1c-.12,0-.14.14-.12.21a16.44,16.44,0,0,1,.92,5.29s0,1.22-.16.56-.09-1.09-.2-1.63a6.74,6.74,0,0,0-.48-2c-.06-.12-.19-.06-.2,0a26.76,26.76,0,0,1-.24,3.57c0,.11-.07.72-.11.47-.1-.54-.11-1.1-.2-1.63a26,26,0,0,0-.69-2.87,5.53,5.53,0,0,0-.9-2.23c-.07-.08-.17,0-.17.09-.18,2.45,0,5,0,7.44,0,.73-.07,1.46-.13,2.19,0,.23-.23,2-.5,1a9.16,9.16,0,0,0-.84-2.81c-.09-.11-.2,0-.21.11-.06.6-.08,1.2-.08,1.81.12.26.06.16-.15-.3l-.63-1.25a26.8,26.8,0,0,0-1.61-3.68.11.11,0,0,0-.21.06c0,.92.3,1.83.37,2.75,0,.54.2,1.1.29,1.64.06.32.21.69.31,1-.42-.41-.79-.95-1.17-1.35-.75-.78-1.49-1.56-2.22-2.35-.17-.18-.31.1-.26.26.18.52.59,1.14.8,1.73a20.93,20.93,0,0,0-2.35-3c-.15-.15-.35,0-.35.18a7.61,7.61,0,0,0,.58,3.16,32.38,32.38,0,0,0,2.47,3.68c.13.2.32,0,.3-.15a9.41,9.41,0,0,0-.75-2.06c.41.45.75,1.21,1.06,1.61.78,1,1.47,2.08,2.2,3.14.08.12.19.07.21-.06a4.24,4.24,0,0,0,0-1.18c-.06-.49-.64-2.13-.12-.85a16.28,16.28,0,0,1,1.31,3.82c0,.21.26.19.25,0,0-.57.06-1.15,0-1.73,0-.38-.11-.76-.13-1.15a2.93,2.93,0,0,0,.3.86,36,36,0,0,1,1,4.2c0,.07.11.09.13,0a5.8,5.8,0,0,1,.4-1C226,208.46,226,209.34,226.17,210.19Z"/><path class="cls-18" d="M223.59,231.82c0-1.44,0-2.88,0-4.32,0-.7-.13-1.39-.2-2.09.05.52.27,1.32.39,1.94a36.77,36.77,0,0,0,.68,4c.05-.22.11-.45.16-.68a15.46,15.46,0,0,0,.38-2.14c0-.41,0-.81,0-1.16,0-1.42,0-2.85-.06-4.27a8.32,8.32,0,0,0-.33-1.21c-.08.4-.05.8-.1,1.2,0,.08.11,1.56,0,.76A11.54,11.54,0,0,0,224,221c-.06-.12-.18,0-.2.06-.12.84-.37,1.79-.4,2.62a6.93,6.93,0,0,0-.24-2.08c-.15-.6-.28-1.21-.43-1.81-.44-.92-.9-1.82-1.36-2.72q0,.35.06.69c0,.2.09,2.24,0,1.5-.05-.29-.06-.54-.13-.83a17.61,17.61,0,0,0-.7-2.82c0,.72-.07,1.43-.13,2.14,0,.05-.07.19-.13.11a6.5,6.5,0,0,1-1.7-3,4.59,4.59,0,0,0-.72-2.15c-.25-.36-.53-.68-.81-1a5.44,5.44,0,0,1,.6,1.81v.17l0,0s0,.06,0,.09a16.56,16.56,0,0,1-.59,2.65,1.73,1.73,0,0,0,1,2,1.59,1.59,0,0,1,.8.91c.14.62,0,1.25.16,1.87.08.38.18.75.29,1.12.17-.44.34-.87.55-1.29,0-.08.11-.08.14,0,.78,1.93.63,4,.86,6a7.21,7.21,0,0,0,.77-1.63,14,14,0,0,1,.93,3.29l0,.32c.15.53.31,1.06.43,1.6.22,1,.4,2,.57,2.95A12.85,12.85,0,0,0,223.59,231.82Z"/><path class="cls-11" d="M178.63,230a46.9,46.9,0,0,0-.14-6.91c-.06-1.13-.11-2.27-.23-3.4a17.52,17.52,0,0,0-.33-2.93s0,0,0,0c0-.19,0-.11-.09-.28,0,0-.05,0-.05,0-.45,1.77-.16,3.93-.12,5.74a50.27,50.27,0,0,0,.41,7.76C178.17,230.3,178.59,230.43,178.63,230Z"/><path class="cls-12" d="M181,230.31c0,.56-.08,1.13-.13,1.7a29.19,29.19,0,0,0,.11,3.62c0,.4.52.5.57,0a31.15,31.15,0,0,0,.14-3.48l-.33-3c-.07-.64-.18-1.27-.29-1.91C181.05,228.27,181.06,229.29,181,230.31Z"/><path class="cls-13" d="M184.06,251.42c.18-3.36.39-6.72.32-10.08a53.5,53.5,0,0,0-.54-9.14s0,0,0,0,0-.05-.05-.14,0,0,0,0a14.7,14.7,0,0,0-.26,3.38c-.08,1.78-.08,3.56-.07,5.34,0,3.54-.23,7.06-.11,10.6C183.37,251.87,184,252,184.06,251.42Z"/><path class="cls-14" d="M180.46,240.75c-.13,1.11-.25,2.22-.36,3.32,0,.07,0,.13,0,.2a28.26,28.26,0,0,0,0,3.68c0,.38.46.43.52,0a53.7,53.7,0,0,0,.19-9.9h0A15.33,15.33,0,0,0,180.46,240.75Z"/><path class="cls-13" d="M178.71,239.2a19,19,0,0,0,.23-3.46c0-.18,0-.36,0-.54-.12-.95-.25-1.9-.36-2.85a12.79,12.79,0,0,0-.15,2.5,34.65,34.65,0,0,0-.14,4.32C178.3,239.49,178.66,239.53,178.71,239.2Z"/><path class="cls-12" d="M190.65,237.66a31.11,31.11,0,0,0-.68,4.67l-.09.69c-.18,1.67-.33,3.34-.44,5,0,.27.34.59.44.2a28.94,28.94,0,0,0,.8-5.78c.07-1.07.1-2.14.15-3.21,0-.33,0-.6,0-.93C190.81,238.39,190.72,237.91,190.65,237.66Z"/><path class="cls-11" d="M187.25,250.56c-.14,1.12-.31,2.23-.44,3.35-.2,1.62-.33,3.25-.62,4.86.1.17.3.26.38,0a31.93,31.93,0,0,0,.94-5c0-.23,0-.46,0-.7,0-1.64.13-3.33,0-5C187.38,248.88,187.35,249.75,187.25,250.56Z"/><path class="cls-13" d="M191.61,243.53a16.62,16.62,0,0,0,.49-3.91,13.56,13.56,0,0,0-.16-3.71s-.06,0-.06,0a46,46,0,0,0-.75,7.49C191.14,243.69,191.52,243.86,191.61,243.53Z"/><path class="cls-11" d="M194.47,237.74a65.56,65.56,0,0,0,.48-9.6c0-1.34,0-2.69,0-4,0-1.18-.29-2.34-.32-3.52v0c0,.18-.06.36-.08.55h0c0,.68,0,1.35-.07,2-.12,1.6-.21,3.2-.28,4.8a88.54,88.54,0,0,0-.18,9.77C194,238.07,194.41,238.13,194.47,237.74Z"/><path class="cls-14" d="M192.62,234.53a13.59,13.59,0,0,0,.27-2.09c0-.8,0-1.6-.11-2.4a8.53,8.53,0,0,0-.25,1.47,13.14,13.14,0,0,0-.25,2.93C192.29,234.64,192.57,234.78,192.62,234.53Z"/><path class="cls-13" d="M197.66,219.43a18.78,18.78,0,0,0,.29-3.08,31,31,0,0,0-.55-4.42,18.6,18.6,0,0,0-.1,2.78c0,1.56-.28,3.13-.18,4.69C197.15,219.8,197.59,219.84,197.66,219.43Z"/><path class="cls-14" d="M196,230.15a60,60,0,0,0,.35-7.08c0-1.24-.05-2.48-.16-3.71,0-.62-.09-1.24-.16-1.86l-.12-.91c0-.18-.15-.63,0-.17,0,0,0,0,0,0a2.86,2.86,0,0,0-.09-.46s-.05,0-.07,0c-.09.66,0,1.36-.08,2,0,.47,0,.94,0,1.39,0,1.24.06,2.47,0,3.7,0,2.37-.2,4.74-.13,7.1C195.6,230.4,196,230.45,196,230.15Z"/><path class="cls-12" d="M199.56,211.4a24.4,24.4,0,0,0,.11-4.1c0-.8-.12-1.61-.21-2.41a21.39,21.39,0,0,1-.38-2.75s-.06-.1-.08,0a16.74,16.74,0,0,0,0,3.81c.05,1.81-.07,3.65.14,5.45C199.17,211.67,199.53,211.74,199.56,211.4Z"/><path class="cls-11" d="M197.76,207.75a10,10,0,0,0,.11-1.44,14.3,14.3,0,0,1-.17-1.59c0-.05-.08-.11-.09,0a5.59,5.59,0,0,0-.1,1.35c0,.57,0,1.14.05,1.71C197.57,207.89,197.74,207.92,197.76,207.75Z"/><path class="cls-14" d="M177,215.59a48,48,0,0,0-.47-9.22s0,0,0,0v-.27s-.05-.08-.06,0a19.17,19.17,0,0,0-.08,4c0,1.84,0,3.65.2,5.48C176.61,215.82,176.94,215.89,177,215.59Z"/><path class="cls-13" d="M176,221l-.06,2.23c.06.49.12,1,.2,1.46,0,.31.45.42.47,0,0-1.62,0-3.22-.14-4.84-.06-.78-.18-1.56-.26-2.34,0-.44-.07-.88-.1-1.32,0,0-.07-.33-.13-.56C176,217.45,176.07,219.23,176,221Z"/><path class="cls-13" d="M186.81,247.35c.59-2.62,1.14-5.21,1.53-7.82-.08,1.8-.18,3.6-.32,5.4,0,.1.13.29.2.13a13.52,13.52,0,0,0,.7-3.16c.28-1.67.78-3.33.89-5s.43-3.28.53-4.91c.17,1,.33,2,.54,2.93a.1.1,0,1,0,.19,0c0-2,.64-4.08.83-6.08a23.07,23.07,0,0,0,.17-4.2,11,11,0,0,1,.62,3c0,.14.22.27.27.07a37.79,37.79,0,0,0,.57-4.12,5.46,5.46,0,0,0-.9-2.94c-.7-1.34.53-2.14,1-3.36a6,6,0,0,1,.13,1.21c0,.06.08.19.13.09,1-1.89,1.89-5.28,1.17-7.78a4.09,4.09,0,0,1,.66,1.26c.05.15.21.13.23,0a6.13,6.13,0,0,0-.43-3,15.56,15.56,0,0,0-.68-1.43c-.55-1-.18-1.85.23-2.81.32-.73,1-1.55,1.49-2.42a11.87,11.87,0,0,1,.13,1.76c0,.11.16.36.25.16a25.91,25.91,0,0,0,2.15-5.2,5.41,5.41,0,0,0-.12-2.4,10.47,10.47,0,0,0-.46-1.54,1.59,1.59,0,0,0-.15-.29,4.8,4.8,0,0,0,1.41.57,5.21,5.21,0,0,1-1.49-2.48,15.22,15.22,0,0,1-.38-1.62c-.15-.5-.28-1-.4-1.44a11.42,11.42,0,0,0-2.12-4.83c-2.42-2.86-6.47-3.78-10-3.45-1.8.16-3.07,1.37-4.34,2.52a15.13,15.13,0,0,0-3.48,4.65,8.4,8.4,0,0,0-.54,4.52c.1,1,.26,1.87.42,2.81a7,7,0,0,1-.22,2.82c0,.11,0,.35.18.33a2.35,2.35,0,0,0,1.43-.7,9,9,0,0,1-1.13,3.58c-.52,1.15-1,2.56.26,3.45.49.36,1.42.57,1.74,1.11.12.21-.24.63-.36.79a3.05,3.05,0,0,0-.55,1.67,4.93,4.93,0,0,0,.37,1.59,3.72,3.72,0,0,0,.19.34,4.48,4.48,0,0,1,.73,1.71,4.94,4.94,0,0,1-.63,2.79,2.76,2.76,0,0,0,1-.61,13.25,13.25,0,0,0-.52,2.64,6.33,6.33,0,0,0,.42,2.09c.44.9.89,1.8,1.27,2.74.1-.44.18-.88.25-1.33a17.86,17.86,0,0,0,.76,1.92,19.22,19.22,0,0,1,1.4,4.16,6.55,6.55,0,0,0,.46,2.21s.1.1.15,0a2.86,2.86,0,0,0,.43-1.51q.09.3.15.54c.26,1.07.38,2.16.62,3.23s.39,2.43.62,3.63c.18,1,.08,2,.26,2.93,0,.07.1.22.19.12a3.7,3.7,0,0,0,.45-.78,68.17,68.17,0,0,1-.79,9.6C186.46,247.41,186.75,247.61,186.81,247.35Z"/><path class="cls-15" d="M180,213.81a3.47,3.47,0,0,0,.18-2.82c-.43-1.3-.62-2.44.25-3.61.05-.06.11,0,.14,0a50,50,0,0,0,3.63,6.57c-.16-1.35-.56-2.65-.8-4,0-.08.07-.24.14-.12a16.52,16.52,0,0,1,2,3.58,15.33,15.33,0,0,1,.63,2c.12.55.16,1.14.31,1.69a17.19,17.19,0,0,0,.26-4.47c0-.13.14-.24.17-.07.24,1.53.62,3,.8,4.56a21,21,0,0,0,.68,3.87c.31-1.44.06-2.94.33-4.39,0-.08.13-.13.16,0,.55,2,.7,4.08,1.15,6.1a29.3,29.3,0,0,1,1.09-4.53c.48-1.54,1.13-3.15.88-4.79,0-.07.08-.24.15-.12a6.15,6.15,0,0,1,.66,2.09,12.35,12.35,0,0,0,.1-3.93,12.58,12.58,0,0,1-.39-3.23c0-.07.08-.19.15-.08.27.39.49.82.74,1.22,0-.75-.05-1.51,0-2.26,0-.12.15-.18.17,0,.19,1.28,1.33,2.06,1.77,3.24a10.14,10.14,0,0,1,.43,1.79h0a6.13,6.13,0,0,0-.43-3,15.56,15.56,0,0,0-.68-1.43c-.55-1-.18-1.85.23-2.81.32-.73,1-1.55,1.49-2.42a11.87,11.87,0,0,1,.13,1.76c0,.11.16.36.25.16a25.91,25.91,0,0,0,2.15-5.2,5.41,5.41,0,0,0-.12-2.4,10.47,10.47,0,0,0-.46-1.54,1.59,1.59,0,0,0-.15-.29,4.8,4.8,0,0,0,1.41.57,5.21,5.21,0,0,1-1.49-2.48,15.22,15.22,0,0,1-.38-1.62c-.15-.5-.28-1-.4-1.44a11.42,11.42,0,0,0-2.12-4.83c-2.42-2.86-6.47-3.78-10-3.45-1.8.16-3.07,1.37-4.34,2.52a15.13,15.13,0,0,0-3.48,4.65,8.4,8.4,0,0,0-.54,4.52c.1,1,.26,1.87.42,2.81a7,7,0,0,1-.22,2.82c0,.11,0,.35.18.33a2.35,2.35,0,0,0,1.43-.7,9,9,0,0,1-1.13,3.58c-.52,1.15-1,2.56.26,3.45.49.36,1.42.57,1.74,1.11.12.21-.24.63-.36.79a3.05,3.05,0,0,0-.55,1.67,4.93,4.93,0,0,0,.37,1.59,3.72,3.72,0,0,0,.19.34,4.48,4.48,0,0,1,.73,1.71,4,4,0,0,1-.08,1.28C180,214,180,213.89,180,213.81Z"/><path class="cls-16" d="M190.09,218c0,.16.21.12.23,0a64.81,64.81,0,0,0,.73-6.51,21.1,21.1,0,0,0,0-3.64,2.37,2.37,0,0,0,.31.53c.07.09.14,0,.14-.1,0-.38,0-.76,0-1.14a3.74,3.74,0,0,0,.33.63c.07.12.21.08.22-.06a32.9,32.9,0,0,1,.9-4.37c0-.28.15-.6.24-.94a3.39,3.39,0,0,0,.3,1.44.11.11,0,0,0,.2,0,20.6,20.6,0,0,0,1.62-4.13,4.57,4.57,0,0,0,.1-1.1,4.62,4.62,0,0,0,1.64.75,2.3,2.3,0,0,1-.64-1.15,2.34,2.34,0,0,1,0-.59.79.79,0,0,1,.06-.29s0,0,0,0a3.61,3.61,0,0,1,.32-.76c.13-.32.26-.64.4-1a9.24,9.24,0,0,0,.89-2.86,7.08,7.08,0,0,0-.54-3.51,3.5,3.5,0,0,1,.91.7c-.33-.36-.39-1.51-.57-2a8.19,8.19,0,0,0-.9-1.8,10.7,10.7,0,0,0-2.86-2.79,11.8,11.8,0,0,0-18.27,6.59,27.65,27.65,0,0,0-.06,2.89,5.77,5.77,0,0,1-.2,1.76,5.86,5.86,0,0,1-.36.85,14.11,14.11,0,0,1,1.07-1c.09-.07.15.09.13.15-.12.5-.32,1-.45,1.47a2.57,2.57,0,0,0,.12,1.77.69.69,0,0,1,0,.13l.27.36a2.24,2.24,0,0,1,.35,1.21c.12.32.22.64.32,1a3.42,3.42,0,0,0,1.15-1l.11-.16a1.88,1.88,0,0,1-.05,1.21c-.06.15-.13.3-.2.45a3.2,3.2,0,0,0,.67,2.29c.07.1.95,1.3,1.43,2a5.11,5.11,0,0,0,.38-1.78,23.88,23.88,0,0,0,1.28,2.09c.69,1,1.19,2.16,1.84,3.22.08.14.26.09.26-.08a20.28,20.28,0,0,0-.39-4.14c.19.39.37.78.54,1.18a25.73,25.73,0,0,0,1.47,3.55.11.11,0,0,0,.2,0,4,4,0,0,0-.07-1.33q0-.36,0-.72c.31,1.11.62,2.22.83,3.35,0,.18.25.24.27,0,.12-1.37.15-2.76.25-4.13.11.67.23,1.33.35,2,.15.9.18,1.85.4,2.74a.12.12,0,0,0,.24,0,7.26,7.26,0,0,0,.38-2.1,33.92,33.92,0,0,1,1.1,4.71C189.74,215.23,189.77,216.68,190.09,218Z"/><path class="cls-17" d="M178.56,195.79a16.38,16.38,0,0,1,.68-4.68l.46,2.11a3.18,3.18,0,0,1,0-.35,7.8,7.8,0,0,1-.13-2.5,7.36,7.36,0,0,1,2.71-4.8c2.56-1.87,5.73-.9,8.12.86a6.71,6.71,0,0,0-3.43-2.35,8.86,8.86,0,0,1,6.65,3.57s-1.1-3.51-6.72-5.16a12.28,12.28,0,0,1,10.63,5.76,10.3,10.3,0,0,0-6.56-6,10.64,10.64,0,0,0-12.21,3.39s-2.69,3.1-2.25,6.8c0,0,.75-3.6,2-5.09C178.47,187.31,176.8,190.69,178.56,195.79Z"/><path class="cls-17" d="M190.12,210.19c0,.12.15.09.16,0,.15-1.26.45-2.49.68-3.73.15-.84.32-1.67.54-2.49.11-.41.17-1.17.33-.41,0,.11.15.26.24.11a16.58,16.58,0,0,0,1.42-5.42,9.76,9.76,0,0,1,.29,1.22c0,.21.34.44.41.11.17-.76.25-1.53.45-2.3,0-.17.09-.33.13-.5.14.56.24,1,.28,1.19s.15.16.2,0a9.6,9.6,0,0,0,.09-8.21c-.08-.19-.27,0-.25.12a13.85,13.85,0,0,1,.15,2.23,3.9,3.9,0,0,0-.56-1.07.12.12,0,0,0-.21.06,5.82,5.82,0,0,0-.07,1.19,4,4,0,0,0-1.05-1.27,4.66,4.66,0,0,0-1.31-1c-.11,0-.14.14-.12.21a16.45,16.45,0,0,1,.93,5.29s0,1.22-.16.56-.1-1.09-.2-1.63a7.06,7.06,0,0,0-.48-2c-.06-.12-.19-.06-.2,0a28.54,28.54,0,0,1-.24,3.57c0,.11-.07.72-.12.47-.09-.54-.1-1.1-.2-1.63a26,26,0,0,0-.68-2.87,5.53,5.53,0,0,0-.9-2.23c-.08-.08-.17,0-.18.09-.18,2.45,0,5,0,7.44,0,.73-.07,1.46-.12,2.19,0,.23-.24,2-.51,1a8.89,8.89,0,0,0-.84-2.81c-.08-.11-.2,0-.21.11-.05.6-.08,1.2-.07,1.81.11.26.06.16-.16-.3s-.42-.83-.62-1.25a28.07,28.07,0,0,0-1.61-3.68.11.11,0,0,0-.21.06,25.91,25.91,0,0,0,.37,2.75,15.66,15.66,0,0,0,.29,1.64,9.16,9.16,0,0,0,.31,1c-.42-.41-.79-.95-1.18-1.35-.74-.78-1.48-1.56-2.21-2.35-.17-.18-.32.1-.26.26.18.52.58,1.14.8,1.73a21.65,21.65,0,0,0-2.35-3c-.16-.15-.36,0-.36.18a8,8,0,0,0,.58,3.16,31.19,31.19,0,0,0,2.48,3.68c.12.2.31,0,.29-.15a9.41,9.41,0,0,0-.75-2.06,19.22,19.22,0,0,1,1.06,1.61c.79,1,1.48,2.08,2.2,3.14.08.12.2.07.22-.06a4.67,4.67,0,0,0,0-1.18c-.06-.49-.64-2.13-.11-.85a16.26,16.26,0,0,1,1.3,3.82c0,.21.26.19.25,0,0-.57.06-1.15,0-1.73,0-.38-.11-.76-.12-1.15a2.93,2.93,0,0,0,.3.86,34,34,0,0,1,1,4.2.07.07,0,0,0,.14,0,5.11,5.11,0,0,1,.4-1C189.93,208.46,189.93,209.34,190.12,210.19Z"/><path class="cls-18" d="M187.54,231.82c0-1.44.05-2.88,0-4.32,0-.7-.13-1.39-.2-2.09.06.52.28,1.32.4,1.94a36.76,36.76,0,0,0,.67,4c.06-.22.11-.45.17-.68a17.09,17.09,0,0,0,.37-2.14c0-.41,0-.81,0-1.16,0-1.42,0-2.85-.05-4.27a8.32,8.32,0,0,0-.33-1.21,9.71,9.71,0,0,0-.1,1.2c0,.08.1,1.56,0,.76a11.08,11.08,0,0,0-.53-2.81c0-.12-.18,0-.19.06-.12.84-.37,1.79-.41,2.62a7.26,7.26,0,0,0-.23-2.08c-.15-.6-.29-1.21-.44-1.81-.43-.92-.89-1.82-1.36-2.72,0,.23,0,.46.06.69s.1,2.24,0,1.5c0-.29-.06-.54-.12-.83a18.78,18.78,0,0,0-.71-2.82c0,.72-.07,1.43-.13,2.14,0,.05-.06.19-.13.11a6.58,6.58,0,0,1-1.7-3,4.48,4.48,0,0,0-.72-2.15c-.25-.36-.53-.68-.8-1a5.42,5.42,0,0,1,.59,1.81c0,.06,0,.11,0,.17a.08.08,0,0,0,0,0,.29.29,0,0,1,0,.09,15.54,15.54,0,0,1-.59,2.65,1.76,1.76,0,0,0,1,2,1.61,1.61,0,0,1,.81.91c.14.62,0,1.25.15,1.87.09.38.19.75.29,1.12.17-.44.35-.87.55-1.29,0-.08.12-.08.15,0,.78,1.93.62,4,.86,6a7.67,7.67,0,0,0,.77-1.63,14.51,14.51,0,0,1,.93,3.29c0,.11,0,.21,0,.32.15.53.3,1.06.42,1.6.22,1,.41,2,.57,2.95A11.42,11.42,0,0,0,187.54,231.82Z"/><path class="cls-4" d="M200,184.74a99.88,99.88,0,0,0-3.1-21.18h-19a100.67,100.67,0,0,0-3.1,21.18s4.75,2.07,12.6,1.86C195.23,186.81,200,184.74,200,184.74Z"/><path class="cls-19" d="M188.5,187.06h-2.22a31.82,31.82,0,0,1-11.67-1.9.46.46,0,0,1-.27-.44,103,103,0,0,1,3.12-21.29.45.45,0,0,1,.43-.32h19a.44.44,0,0,1,.43.32,101.37,101.37,0,0,1,3.12,21.29.46.46,0,0,1-.27.44A31.73,31.73,0,0,1,188.5,187.06Zm-1.12-.91,1.12,0a32.35,32.35,0,0,0,11-1.73,102.76,102.76,0,0,0-3-20.43h-18.3a102.91,102.91,0,0,0-3,20.43A32.74,32.74,0,0,0,187.38,186.15Z"/><path class="cls-20" d="M198.7,172.24a80.41,80.41,0,0,0-1.82-8.68h-19a79.86,79.86,0,0,0-1.79,8.55A39.71,39.71,0,0,0,198.7,172.24Z"/><path class="cls-21" d="M187.55,174.26h0A39.48,39.48,0,0,1,176,172.54a.44.44,0,0,1-.31-.5,81.39,81.39,0,0,1,1.8-8.61.45.45,0,0,1,.43-.32h19a.44.44,0,0,1,.43.32,81.23,81.23,0,0,1,1.83,8.74.44.44,0,0,1-.32.5A40.9,40.9,0,0,1,187.55,174.26Zm-10.94-2.47a38,38,0,0,0,10.94,1.58h0a40.19,40.19,0,0,0,10.64-1.45c-.68-4.15-1.4-7-1.65-7.91h-18.3C178,164.92,177.28,167.72,176.61,171.79Z"/><path class="cls-20" d="M175,180.91c-.1,1.24-.19,2.51-.25,3.83,0,0,4.75,2.07,12.6,1.86,7.84.21,12.59-1.86,12.59-1.86,0-1.26-.14-2.47-.23-3.66A39.44,39.44,0,0,1,175,180.91Z"/><path class="cls-21" d="M188.5,187.06h-2.22a31.82,31.82,0,0,1-11.67-1.9.46.46,0,0,1-.27-.44c.06-1.24.14-2.5.25-3.85a.47.47,0,0,1,.21-.34.44.44,0,0,1,.39,0,37.59,37.59,0,0,0,12.37,2,40.09,40.09,0,0,0,12.05-1.87.44.44,0,0,1,.39.05.47.47,0,0,1,.2.34c.11,1.39.18,2.55.23,3.67a.46.46,0,0,1-.27.44A31.73,31.73,0,0,1,188.5,187.06Zm-1.12-.91,1.12,0a32.41,32.41,0,0,0,11-1.73c0-.85-.1-1.75-.17-2.76a41,41,0,0,1-11.79,1.74,38.73,38.73,0,0,1-12.12-1.9c-.08,1-.14,2-.18,2.92A32.74,32.74,0,0,0,187.38,186.15Z"/><path class="cls-20" d="M175.72,174.69c-.16,1.14-.31,2.33-.44,3.6a39.54,39.54,0,0,0,24.23.16c-.13-1.27-.28-2.48-.43-3.62A39.56,39.56,0,0,1,175.72,174.69Z"/><path class="cls-21" d="M187.55,180.71a38.5,38.5,0,0,1-12.42-2,.45.45,0,0,1-.3-.47c.13-1.18.27-2.36.44-3.61a.46.46,0,0,1,.58-.37,37.91,37.91,0,0,0,11.7,1.81A40,40,0,0,0,199,174.4a.47.47,0,0,1,.38.06.47.47,0,0,1,.2.31c.15,1.15.3,2.36.43,3.63a.46.46,0,0,1-.32.48A40.94,40.94,0,0,1,187.55,180.71ZM175.76,178a38.11,38.11,0,0,0,11.79,1.84A40.19,40.19,0,0,0,199,178.13c-.1-.95-.21-1.85-.33-2.72A41.17,41.17,0,0,1,187.55,177a39,39,0,0,1-11.46-1.69C176,176.2,175.86,177.09,175.76,178Z"/><path class="cls-22" d="M182.65,163.56h-1.38c-.76,3.87-2.28,7.66-2.91,11.55-.57,3.44-1,6.9-1.32,10.37.59.15,1.29.32,2.09.47A149.66,149.66,0,0,1,182.65,163.56Z"/><path class="cls-23" d="M189.74,186.59A30.39,30.39,0,0,0,200,184.74a99.88,99.88,0,0,0-3.1-21.18h-7.55C189.79,168.45,190.27,183.87,189.74,186.59Z"/><path class="cls-4" d="M235.34,184.74a100.22,100.22,0,0,0-3.11-21.18h-19a100.22,100.22,0,0,0-3.11,21.18s4.75,2.07,12.6,1.86C230.59,186.81,235.34,184.74,235.34,184.74Z"/><path class="cls-19" d="M223.85,187.06h-2.22a31.67,31.67,0,0,1-11.66-1.9.45.45,0,0,1-.27-.44,102.61,102.61,0,0,1,3.11-21.29.46.46,0,0,1,.44-.32h19a.46.46,0,0,1,.44.32,102.61,102.61,0,0,1,3.11,21.29.45.45,0,0,1-.27.44A31.67,31.67,0,0,1,223.85,187.06Zm-1.12-.91,1.12,0a32.35,32.35,0,0,0,11-1.73,102.91,102.91,0,0,0-3-20.43h-18.3a102.91,102.91,0,0,0-3,20.43A32.83,32.83,0,0,0,222.73,186.15Z"/><path class="cls-20" d="M234.05,172.24a80.41,80.41,0,0,0-1.82-8.68h-19a78,78,0,0,0-1.8,8.55A39.71,39.71,0,0,0,234.05,172.24Z"/><path class="cls-21" d="M222.9,174.26h0a39.48,39.48,0,0,1-11.58-1.72.45.45,0,0,1-.31-.5,84.66,84.66,0,0,1,1.8-8.61.46.46,0,0,1,.44-.32h19a.46.46,0,0,1,.44.32,86.36,86.36,0,0,1,1.82,8.74.44.44,0,0,1-.32.5A40.85,40.85,0,0,1,222.9,174.26ZM212,171.79a38.1,38.1,0,0,0,10.94,1.58h0a40.14,40.14,0,0,0,10.64-1.45c-.68-4.15-1.4-7-1.65-7.91h-18.3C213.34,164.92,212.63,167.72,212,171.79Z"/><path class="cls-20" d="M210.39,180.91c-.1,1.24-.18,2.51-.25,3.83,0,0,4.75,2.07,12.6,1.86,7.85.21,12.6-1.86,12.6-1.86-.06-1.26-.14-2.47-.24-3.66A39.44,39.44,0,0,1,210.39,180.91Z"/><path class="cls-21" d="M223.85,187.06h-2.22a31.67,31.67,0,0,1-11.66-1.9.45.45,0,0,1-.27-.44c.05-1.2.13-2.42.25-3.85a.45.45,0,0,1,.2-.34.44.44,0,0,1,.39,0,37.66,37.66,0,0,0,12.38,2A40.18,40.18,0,0,0,235,180.66a.43.43,0,0,1,.38.05.47.47,0,0,1,.2.34c.1,1.3.18,2.51.23,3.67a.45.45,0,0,1-.27.44A31.67,31.67,0,0,1,223.85,187.06Zm-1.12-.91,1.12,0a32.41,32.41,0,0,0,11-1.73c0-.88-.1-1.8-.17-2.76a40.89,40.89,0,0,1-11.78,1.74,38.8,38.8,0,0,1-12.13-1.9c-.08,1.06-.14,2-.18,2.92A32.83,32.83,0,0,0,222.73,186.15Z"/><path class="cls-20" d="M211.07,174.69c-.16,1.14-.31,2.33-.44,3.6a39.55,39.55,0,0,0,24.23.16c-.13-1.27-.27-2.48-.43-3.62A39.56,39.56,0,0,1,211.07,174.69Z"/><path class="cls-21" d="M222.91,180.71a38.5,38.5,0,0,1-12.42-2,.43.43,0,0,1-.3-.47c.13-1.27.28-2.47.43-3.61a.47.47,0,0,1,.21-.32.46.46,0,0,1,.38-.05,37.78,37.78,0,0,0,11.69,1.81,40.09,40.09,0,0,0,11.41-1.67.45.45,0,0,1,.37.06.44.44,0,0,1,.2.31c.15,1.15.3,2.36.43,3.63a.47.47,0,0,1-.31.48A41,41,0,0,1,222.91,180.71ZM211.12,178a38.05,38.05,0,0,0,11.79,1.84,40.17,40.17,0,0,0,11.47-1.69c-.1-.95-.21-1.85-.32-2.72A41.29,41.29,0,0,1,222.9,177a39,39,0,0,1-11.46-1.69C211.33,176.14,211.22,177,211.12,178Z"/><path class="cls-22" d="M218,163.56h-1.37c-.77,3.87-2.28,7.66-2.92,11.55-.56,3.44-1,6.9-1.32,10.37.59.15,1.29.32,2.09.47A151,151,0,0,1,218,163.56Z"/><path class="cls-23" d="M225.1,186.59a30.47,30.47,0,0,0,10.24-1.85,100.22,100.22,0,0,0-3.11-21.18h-7.55C225.15,168.45,225.62,183.87,225.1,186.59Z"/><path class="cls-24" d="M237.84,167.51A89.21,89.21,0,0,0,230,137h-48.2a89.21,89.21,0,0,0-7.87,30.51s12,3,32,2.67C225.79,170.48,237.84,167.51,237.84,167.51Z"/><path class="cls-25" d="M208.7,171.05h0l-2.84,0-2.82,0c-18.07,0-29.14-2.68-29.25-2.71l-.37-.09,0-.38a90.54,90.54,0,0,1,7.92-30.68l.13-.25h48.74l.13.25a90.81,90.81,0,0,1,7.92,30.68l0,.38-.37.09C237.84,168.37,226.77,171.05,208.7,171.05Zm-2.84-.92,2.84,0c16.12,0,26.6-2.14,28.66-2.6a90.81,90.81,0,0,0-7.67-29.71H182.05a90.53,90.53,0,0,0-7.67,29.71C176.55,168,188.15,170.39,205.86,170.13Z"/><path class="cls-26" d="M225.1,169.83a99.32,99.32,0,0,0,12.74-1.93A89.21,89.21,0,0,0,230,137.39H219.72C221.28,148.24,224.18,158.93,225.1,169.83Z"/><path class="cls-3" d="M206.76,10.2c-.27-.17-.5-.29-.69-.39-.19.1-.43.22-.7.39-12.93,8-17.26,25.24-19.77,39.25q-2.5,45.1-5,90.2a429.08,429.08,0,0,0,51,0q-2.52-45.09-5-90.19C224,35.44,219.7,18.2,206.76,10.2Z"/><path class="cls-10" d="M206.06,140.86h0c-8.44,0-17-.26-25.5-.76a.45.45,0,0,1-.42-.47l5-90.2c2.71-15.19,7.19-31.72,20-39.61.27-.17.52-.31.72-.41a.43.43,0,0,1,.41,0c.2.1.45.24.73.41,12.78,7.9,17.27,24.43,20,39.56l1.39,24.9Q230.18,107,232,139.63a.44.44,0,0,1-.42.47C223.08,140.6,214.5,140.86,206.06,140.86Zm-25-1.63c8.32.49,16.73.73,25,.73h0c8.27,0,16.69-.24,25-.73q-1.82-32.44-3.62-64.9l-1.38-24.85C223.42,34.6,219,18.3,206.52,10.58l-.45-.27-.46.27c-12.48,7.7-16.9,24-19.56,39Z"/><path class="cls-20" d="M222.27,32.59c-3-8.31-7.87-17.17-15.51-21.88-.27-.17-.5-.3-.69-.4-.19.1-.43.23-.7.4-7.65,4.73-12.53,13.57-15.51,21.88C200.7,33.08,211.43,33.08,222.27,32.59Z"/><path class="cls-27" d="M225.41,76.58a19.1,19.1,0,1,1-19.1-19.1A19.11,19.11,0,0,1,225.41,76.58Z"/><path class="cls-10" d="M224.17,75.34a17.86,17.86,0,1,1-17.86-17.86A17.86,17.86,0,0,1,224.17,75.34Z"/><path class="cls-20" d="M206.31,93.64a18.31,18.31,0,1,1,18.31-18.3A18.33,18.33,0,0,1,206.31,93.64Zm0-35.71a17.41,17.41,0,1,0,17.41,17.41A17.43,17.43,0,0,0,206.31,57.93Z"/><path class="cls-28" d="M220.81,75.69a14.5,14.5,0,1,1-14.5-14.49A14.5,14.5,0,0,1,220.81,75.69Z"/><path class="cls-29" d="M192.5,65.83a14,14,0,0,0-2.74,6.42c.4.22.81.43,1.22.64a12.73,12.73,0,0,1,3.34-7.06c7.67-8.24,18.46-5.16,18.46-5.16C212,59.94,201.35,54.07,192.5,65.83Z"/><path class="cls-29" d="M189.62,74.67c.16,6.6,4.7,11.94,4.7,11.94a22.39,22.39,0,0,1-3.49-11.32Z"/><g class="cls-30"><path class="cls-31" d="M207.49,102a1.9,1.9,0,0,0-2.36,0c-1.89,1-4.56,3.88-6.68,12.24l5.91,47.39a19,19,0,0,0,1.95,6.27,19,19,0,0,0,1.95-6.27l5.91-47.39C212.05,105.84,209.38,102.93,207.49,102Z"/></g><path class="cls-10" d="M207.23,98.84a3,3,0,0,0-.92-.39,2.82,2.82,0,0,0-.91.39c-1.46.94-3.53,3.75-5.17,11.82l4.57,45.72a22,22,0,0,0,1.51,6.05,21.59,21.59,0,0,0,1.51-6.05l4.57-45.72C210.75,102.59,208.69,99.78,207.23,98.84Z"/><path class="cls-10" d="M206.31,162.88h0a.44.44,0,0,1-.4-.26,21.59,21.59,0,0,1-1.55-6.2l-4.58-45.72a.57.57,0,0,1,0-.13c1.34-6.61,3.15-10.68,5.36-12.1a3.26,3.26,0,0,1,1.06-.46.67.67,0,0,1,.2,0,3.26,3.26,0,0,1,1.06.46c2.21,1.42,4,5.49,5.36,12.1a.57.57,0,0,1,0,.13l-4.57,45.72a22.33,22.33,0,0,1-1.55,6.2A.46.46,0,0,1,206.31,162.88Zm-5.63-52.2,4.57,45.65a23.88,23.88,0,0,0,1.06,4.92,23.75,23.75,0,0,0,1.06-4.92l4.57-45.65c-1.61-7.87-3.58-10.58-4.95-11.46a2.72,2.72,0,0,0-.68-.31,2.66,2.66,0,0,0-.67.31C204.26,100.1,202.29,102.81,200.68,110.68Z"/><path class="cls-20" d="M207.23,98.84a3,3,0,0,0-.92-.39l-.08,0v63.76c0,.06.05.13.08.19a21.59,21.59,0,0,0,1.51-6.05l4.57-45.72C210.75,102.59,208.69,99.78,207.23,98.84Z"/></g></g></svg>