<svg width="356" height="247" viewBox="0 0 356 247" fill="none" xmlns="http://www.w3.org/2000/svg">
<path opacity="0.46" d="M243.799 209.511C240.035 209.512 236.384 210.795 233.447 213.147C230.509 215.499 228.46 218.782 227.636 222.454C226.17 221.083 224.273 220.265 222.271 220.137C220.268 220.009 218.283 220.581 216.655 221.754C216.697 221.344 216.718 220.932 216.718 220.52C216.718 217.379 215.47 214.366 213.249 212.145C211.027 209.924 208.015 208.676 204.873 208.676C204.53 208.676 204.191 208.69 203.856 208.719V167.51L187.89 149.66L166.372 177.967V200.881C166.027 200.86 165.679 200.847 165.33 200.847C160.961 200.847 156.77 202.583 153.681 205.673C150.591 208.763 148.855 212.953 148.855 217.322C148.855 217.604 148.861 217.881 148.876 218.159C146.438 217.486 143.862 217.493 141.427 218.179C140.563 213.971 138.11 210.258 134.579 207.812C131.048 205.366 126.709 204.376 122.466 205.047C118.223 205.718 114.402 207.999 111.798 211.415C109.194 214.831 108.007 219.12 108.484 223.389C107.388 222.745 106.158 222.363 104.89 222.272C103.622 222.18 102.35 222.383 101.173 222.863C99.996 223.344 98.9457 224.089 98.1037 225.042C97.2617 225.994 96.6508 227.128 96.3184 228.355C95.9859 229.582 95.941 230.869 96.1871 232.117C96.4332 233.364 96.9636 234.538 97.7372 235.547C98.5107 236.555 99.5065 237.372 100.647 237.934C101.788 238.495 103.043 238.786 104.314 238.783H249.989V238.724C251.988 238.724 260.36 235.229 260.36 226.081C260.361 223.906 259.933 221.751 259.101 219.741C258.269 217.731 257.05 215.904 255.512 214.365C253.974 212.827 252.148 211.606 250.138 210.773C248.128 209.94 245.974 209.511 243.799 209.511Z" fill="#F9A146"/>
<path d="M291.767 235.671L292.281 231.971L290.123 230.168L289.443 235.065L291.767 235.671Z" fill="#FFB27D"/>
<path d="M284.601 238.975H293.397C293.397 238.975 293.608 237.634 293.15 236.618C292.71 235.642 292.025 235.04 291.963 234.292C291.404 234.867 290.716 235.237 289.444 235.067C289.288 235.314 288.438 236.671 287.918 237.041C287.341 237.458 284.779 237.311 284.601 238.975Z" fill="#FF4500"/>
<path d="M286.364 185.716C286.939 190.344 287.409 194.707 287.793 198.773C289.845 220.438 289.449 233.681 289.449 233.681C289.449 233.681 289.596 234.072 290.865 234.079C291.343 234.075 291.819 234.025 292.287 233.928C292.287 233.928 296.87 219.781 296.516 211.731C296.49 210.852 296.37 209.978 296.158 209.125C295.059 205.007 300.23 189.261 294.609 183.388C288.987 177.515 286.104 183.589 286.364 185.716Z" fill="#222A3B"/>
<path d="M286.364 185.716C286.939 190.344 287.409 194.707 287.793 198.773L296.505 211.728C296.479 210.849 296.359 209.976 296.147 209.122C295.048 205.004 300.219 189.258 294.598 183.385C288.976 177.513 286.104 183.589 286.364 185.716Z" fill="#222A3B"/>
<path d="M279.446 141.455C279.446 141.455 279.658 140.398 279.897 139.591C280.003 139.234 279.266 136.889 278.757 136.6C278.247 136.311 276.919 137.891 277.296 139.103C277.488 139.72 277.805 141.752 277.805 141.752L279.446 141.455Z" fill="#FFB27D"/>
<path d="M279.2 140.345C279.2 140.345 279.476 139.728 279.727 139.631C279.977 139.535 280.245 138.53 280.429 138.132C280.429 138.132 280.251 137.873 279.941 138.208C279.751 138.411 279.324 139.01 279.324 139.01L279.2 140.345Z" fill="#FFB27D"/>
<path d="M315.758 145.134C315.811 145.245 315.882 145.445 315.953 145.627C315.953 145.577 315.953 145.526 315.953 145.477C315.953 145.107 317.347 143.077 317.919 142.951C318.49 142.825 319.298 144.722 318.584 145.772C318.213 146.311 317.32 148.157 317.32 148.157L315.84 147.39C315.84 147.39 315.754 146.723 315.545 146.555C315.335 146.387 315.372 145.35 315.312 144.917C315.313 144.92 315.56 144.724 315.758 145.134Z" fill="#FFB27D"/>
<path d="M306.518 234.562C306.642 233.376 306.674 230.256 306.674 230.256C306.674 230.256 303.494 229.241 303.612 229.938C304.187 233.368 304.031 235.067 304.031 235.067L305.317 235.834L306.518 234.562Z" fill="#FFB27D"/>
<path d="M289.024 185.496C289.024 185.496 301.304 219.158 303.721 233.76C303.721 233.76 304.281 234.145 305.325 234.017C306.509 233.872 306.834 233.049 306.834 233.049C306.834 233.049 309.055 215.549 304.643 209.473C301.614 205.299 305.949 186.966 298.894 185.496C291.839 184.027 289.024 185.496 289.024 185.496Z" fill="#222A3B"/>
<path d="M291.116 159.69C291.169 159.831 291.231 159.968 291.301 160.101C291.402 160.296 291.521 160.48 291.658 160.65C291.594 160.442 291.545 160.229 291.509 160.014C291.489 159.903 291.472 159.782 291.457 159.652C291.375 158.849 291.365 158.039 291.427 157.234C291.422 158.038 291.491 158.841 291.633 159.632C291.651 159.735 291.672 159.837 291.697 159.938C291.769 160.269 291.87 160.593 292 160.906C292.022 160.962 292.048 161.019 292.076 161.075C292.896 161.806 293.876 162.925 294.875 164.214C295.562 165.097 296.258 166.064 296.916 167.033C297.17 167.408 297.417 167.781 297.656 168.153C297.758 168.31 297.857 168.464 297.955 168.619C298.078 168.812 298.194 169.001 298.31 169.189C298.632 169.713 298.927 170.218 299.199 170.7C299.261 170.809 299.323 170.917 299.378 171.023C300.207 172.545 300.702 173.752 300.59 174.216L300.742 174.11C300.77 174.093 300.801 174.07 300.835 174.047C301.175 173.811 301.843 173.352 302.686 172.777L302.742 172.607L303.165 171.297C303.257 171.59 303.196 172.112 303.133 172.477C304.46 171.579 306.116 170.474 307.618 169.516C308.74 168.798 309.773 168.159 310.52 167.75C310.396 167.109 310.239 166.474 310.049 165.85C310.487 166.043 310.906 166.96 311.103 167.453C311.154 167.428 311.202 167.407 311.246 167.388C311.246 167.388 311.328 163.635 306.427 160.094C303.858 158.243 302.037 157.357 302.421 155.544C302.805 153.73 303.136 145.73 297.486 146.995C297.486 146.995 296.685 146.485 296.291 146.486C296.461 146.545 296.613 146.647 296.732 146.781C296.115 146.658 295.224 146.567 294.421 146.876C293.98 147.046 293.493 147.598 293.018 148.396C292.99 148.448 292.959 148.499 292.928 148.553C292.727 148.905 292.531 149.301 292.341 149.728C291.988 150.529 291.69 151.354 291.447 152.195C291.364 152.485 291.285 152.776 291.213 153.072C291.208 153.087 291.205 153.102 291.203 153.117C290.632 155.479 290.453 158 291.116 159.69Z" fill="#222A3B"/>
<path d="M292.268 161.22C292.249 161.22 293.851 162.386 295.211 162.223C296.489 162.07 297.529 160.597 297.513 160.591C297.007 160.41 296.964 159.673 297.432 156.602L297.185 156.613L293.113 156.808C293.113 156.808 293.018 158.067 292.847 159.239C292.707 160.224 292.509 161.149 292.268 161.22Z" fill="#FFB27D"/>
<path d="M293.118 156.808C293.118 156.808 293.023 158.067 292.852 159.239C295.072 159.505 296.544 157.661 297.19 156.613L293.118 156.808Z" fill="#ED975D"/>
<path d="M297.662 156.243C297.662 156.243 299.095 154.584 299.605 153.058C299.975 151.968 300.019 147.738 295.762 147.714C294.905 147.706 294.058 147.89 293.282 148.253C292.286 148.73 290.785 149.857 291.707 153.691L291.904 154.969L297.662 156.243Z" fill="#222A3B"/>
<path d="M286.352 184.85C286.352 184.85 291.651 187.998 298.302 186.38C298.381 186.36 303.78 185.499 303.78 185.499C303.688 185.245 302.989 181.074 302.898 180.841C301.719 177.795 299.567 161.266 297.759 160.45C297.299 160.952 295.984 161.295 294.859 161.191C293.562 161.076 293.131 160.516 293.236 159.914C291.801 160.592 290.699 161.221 290.699 161.221C289.389 163.192 286.352 184.85 286.352 184.85Z" fill="#F9A146"/>
<path d="M292.214 157.809C292.214 157.809 297.438 158.672 297.926 155.413C298.415 152.153 299.418 150.066 296.104 149.376C292.79 148.685 291.954 149.832 291.526 150.882C291.097 151.932 290.868 157.499 292.214 157.809Z" fill="#FFB27D"/>
<path d="M293.731 148.942C293.731 148.942 294.595 152.981 296.711 153.877C298.827 154.773 299.87 154.322 299.87 154.322C299.55 152.863 299.385 151.374 299.376 149.881C299.376 149.881 295.084 147.281 293.731 148.942Z" fill="#222A3B"/>
<path d="M294.039 149.306C294.039 149.306 292.841 150 292.458 150.786C292.074 151.572 291.701 153.27 291.212 153.138C291.212 153.138 290.518 150.377 291.952 149.085C293.469 147.723 294.039 149.306 294.039 149.306Z" fill="#222A3B"/>
<path d="M277.769 141.654C277.981 141.578 278.295 141.407 278.703 141.365C278.979 141.354 279.256 141.383 279.524 141.451C279.524 141.451 281.004 150.612 281.107 151.097C281.209 151.582 287.429 158.58 289.103 158.552C290.615 158.527 292.407 159.694 292.74 159.919C292.74 159.919 289.218 167.366 289.039 168.765C288.847 170.286 287.024 193.729 287.024 193.729C287.024 193.729 287.132 194.819 285.094 194.232C283.056 193.645 282.548 193.161 282.548 193.161C282.548 193.161 284.419 174.707 284.812 168.968C284.86 168.244 284.98 167.527 285.17 166.827C285.254 166.512 285.266 166.182 285.206 165.862C285.145 165.541 285.013 165.239 284.819 164.976C282.243 161.44 278.175 155.71 277.948 154.489C277.619 152.71 277.769 141.654 277.769 141.654Z" fill="#FF4500"/>
<path d="M299.196 238.975H307.992C307.992 238.975 308.203 237.634 307.745 236.618C307.304 235.642 306.62 235.04 306.557 234.292C305.998 234.867 305.311 235.237 304.038 235.067C303.883 235.314 303.033 236.671 302.512 237.041C301.93 237.458 299.366 237.311 299.196 238.975Z" fill="#FF4500"/>
<path d="M293.15 169.488C293.446 167.663 297.232 160.339 297.232 160.339C297.232 160.339 299.624 159.624 301.198 160.194C302.773 160.764 310.922 156.164 311.182 155.74C311.443 155.315 315.808 147.185 315.808 147.185C315.808 147.185 316.169 146.975 316.749 147.277C316.914 147.361 317.054 147.487 317.155 147.642C317.256 147.797 317.315 147.976 317.325 148.161C317.325 148.161 313.957 158.401 313.061 159.983C312.521 160.938 307.978 164.263 304.456 166.753C304.126 166.986 303.867 167.304 303.706 167.674C303.545 168.044 303.488 168.45 303.541 168.85C304.014 172.352 304.135 174.323 304.68 180.332C305.132 185.315 305.304 194.965 305.304 194.965C305.304 194.965 301.362 196.322 298.642 196.509C295.921 196.697 295.328 193.822 295.328 193.822C295.328 193.822 292.843 171.363 293.15 169.488Z" fill="#FF4500"/>
<path d="M293.925 156.199C293.502 156.426 293.019 156.517 292.542 156.459C292.029 156.381 291.912 155.773 291.912 155.773C292.216 155.701 292.534 155.701 292.838 155.773C293.22 155.86 293.586 156.003 293.925 156.199Z" fill="white"/>
<path d="M89.1231 148.088C89.1231 148.088 87.0145 145.972 88.2841 145.07C89.5537 144.168 90.3223 144.461 90.5481 145.013C90.7739 145.566 90.7949 147.986 90.7949 147.986L89.1231 148.088Z" fill="#FFB27D"/>
<path d="M94.7136 163.815C92.4965 164.89 90.1988 165.791 87.8414 166.509C86.0373 167.057 84.1974 167.481 82.3349 167.776C81.8945 167.846 81.4713 167.905 81.0567 167.955C76.715 168.481 74.103 168 74.103 168C74.103 168 74.5657 158.283 77.7723 158.268C81.4343 158.252 89.5761 159.318 89.9302 158.242C90.3299 157.028 88.4644 148.097 88.4644 148.097C89.8216 147.044 91.0357 147.445 91.0357 147.445C91.0357 147.445 98.457 162.011 94.7136 163.815Z" fill="#F9A146"/>
<path d="M94.7136 163.815C92.4964 164.89 90.1987 165.791 87.8413 166.508C86.0372 167.057 84.1974 167.48 82.3349 167.776C80.5261 164.99 78.9691 162.064 81.4219 163.407C85.7488 165.776 94.7136 163.815 94.7136 163.815Z" fill="#ED7D2B"/>
<path d="M72.1767 235.26C72.1767 235.26 71.8966 238.506 72.5826 238.838L81.3636 238.819C81.3636 238.819 81.3636 237.806 79.9533 237.585C78.5431 237.364 76.0644 236.534 75.6449 234.696C75.2254 232.857 72.1767 235.26 72.1767 235.26Z" fill="#F99746"/>
<path d="M78.6188 195.974C78.5756 198.096 78.4732 200.286 78.2733 202.252C77.3258 211.596 76.9889 222.87 76.8557 225.044C76.62 228.82 75.8687 234.852 75.8687 234.852C75.8687 234.852 74.3881 236.256 71.5059 235.592C71.5059 235.592 69.1173 226.905 68.5831 217.758C68.5744 217.608 68.567 217.456 68.5596 217.306C68.4967 216.097 68.4363 214.715 68.3659 213.223C67.9267 203.23 67.4492 188.399 67.4492 188.399L78.4695 185.81C78.4695 185.81 78.7274 190.682 78.6188 195.974Z" fill="#222A3B"/>
<path d="M50.7189 186.64C50.7189 186.64 48.925 188.749 48.7646 189.334C48.6042 189.918 48.3155 192.024 48.4697 192.657C48.624 193.29 49.8158 190.893 50.2489 190.636C50.6819 190.38 49.9231 191.59 50.0724 191.792C50.2217 191.995 51.0767 191.087 51.4099 190.78C51.743 190.472 51.7109 188.818 52.1119 187.839C52.5129 186.861 50.7189 186.64 50.7189 186.64Z" fill="#FFB27D"/>
<path d="M50.2979 231.57C50.2979 231.57 48.7347 232.997 49.0394 234.011C49.3441 235.025 50.7544 235.699 50.9456 236.937C51.1369 238.176 51.8981 238.852 52.5841 238.852H55.8561C55.8561 238.852 56.3608 237.98 55.1405 237.717C53.9203 237.454 53.4613 236 53.5366 234.649C53.6119 233.298 53.4218 231.495 53.4218 231.495L50.8309 230.896L50.2979 231.57Z" fill="#F99746"/>
<path d="M76.7423 188.62C76.7423 188.62 66.4277 210.69 60.9386 220.374C55.4494 230.058 53.7332 232.76 53.7332 232.76C53.7332 232.76 50.5882 231.526 50.3032 230.676C50.3032 230.676 52.4007 211.982 56.0774 207.424C58.1551 204.849 60.5956 197.122 60.7091 194.418C60.8226 191.715 63.2334 185.266 63.2334 185.266L76.7423 188.62Z" fill="#222A3B"/>
<path d="M79.7523 189.661C79.7523 189.661 75.6499 192.402 69.8449 192.148C67.2971 192.037 62.2434 191.314 61.4279 189.288C61.2354 188.812 61.3761 188.208 61.6636 187.282C62.4038 184.874 64.1472 180.286 63.6228 170.117C63.5742 169.227 63.5969 168.335 63.6907 167.449C64.2373 162.439 67.1083 159.473 69.8831 158.504C76.6493 156.14 78.9046 159.415 78.9046 159.415C78.9046 159.415 81.8954 161.785 82.3469 166.731C83.2476 176.623 79.7523 189.661 79.7523 189.661Z" fill="#F9A146"/>
<path d="M72.0005 159.874C72.0005 159.874 75.5217 160.769 78.5853 159.271C78.5853 159.271 79.1726 158.914 78.6297 158.263C78.6429 157.901 78.6364 157.539 78.6099 157.178C78.5992 156.596 78.5555 156.015 78.4792 155.439L76.0634 154.081L73.4724 152.86C73.5932 153.412 73.6756 153.971 73.7192 154.534C74.0955 158.36 72.0005 159.874 72.0005 159.874Z" fill="#FFB27D"/>
<path d="M74.0029 154.523C74.0029 154.523 75.8129 156.876 78.6099 157.178C78.5766 156.061 78.4286 154.926 78.4286 154.926L76.0634 154.079L74.0029 154.523Z" fill="#ED985F"/>
<path d="M80.5012 154.718C80.5012 154.718 75.0527 157.165 73.5919 153.805C72.1311 150.446 70.4359 148.5 73.8523 146.795C77.2686 145.09 78.5086 146.079 79.281 147.081C80.0533 148.083 81.8806 153.995 80.5012 154.718Z" fill="#FFB27D"/>
<path d="M69.6822 147.451C69.6144 147.405 69.4823 147.389 69.2134 147.451C69.3417 147.325 69.4988 147.232 69.6711 147.18C69.6292 146.796 69.6514 146.09 70.2448 145.762C70.1576 145.85 70.0913 145.957 70.0509 146.074C70.0106 146.191 69.9971 146.316 70.0117 146.439C70.5459 145.488 71.9771 144.52 76.4274 143.703C82.3027 142.628 81.3848 146.816 80.7568 147.452C80.1288 148.089 77.9339 147.384 76.5755 147.863C75.217 148.342 75.486 150.418 75.0887 150.818C74.6914 151.218 74.747 150.682 74.0326 150.564C73.3182 150.445 73.5391 151.518 73.9092 152.154C74.2794 152.791 73.6415 153.93 73.6415 153.93L72.5039 153.213C71.3664 152.495 69.4601 148.682 69.6341 147.715C69.6514 147.625 69.6662 147.539 69.6822 147.451Z" fill="#222A3B"/>
<path d="M87.9473 147.405L78.7666 150.311L78.2793 148.945L87.2379 145.419L87.9473 147.405Z" fill="#F99746"/>
<path d="M94.9676 145.505L84.9887 148.724L84.1016 146.242L93.8584 142.402L94.9676 145.505Z" fill="#FF4500"/>
<path d="M101.787 143.63L93.3377 146.233L92.1396 142.881L100.323 139.534L101.787 143.63Z" fill="#F9A146"/>
<path d="M102.083 144.043C102.144 144.021 102.2 143.988 102.249 143.944C102.297 143.901 102.336 143.848 102.364 143.789C102.392 143.731 102.408 143.667 102.411 143.602C102.414 143.537 102.405 143.472 102.383 143.411L100.844 139.107C100.822 139.045 100.789 138.989 100.745 138.941C100.702 138.893 100.649 138.853 100.591 138.825C100.532 138.798 100.468 138.782 100.403 138.778C100.338 138.775 100.274 138.785 100.212 138.807C100.151 138.829 100.095 138.862 100.047 138.906C99.9989 138.949 99.9598 139.002 99.9321 139.061C99.9044 139.119 99.8885 139.183 99.8853 139.248C99.8822 139.313 99.8919 139.377 99.9138 139.438L101.451 143.744C101.473 143.806 101.507 143.862 101.55 143.91C101.594 143.958 101.646 143.997 101.705 144.025C101.764 144.052 101.827 144.068 101.892 144.071C101.957 144.075 102.022 144.065 102.083 144.043Z" fill="#FF4500"/>
<path d="M78.8282 150.616C78.7739 150.635 78.7162 150.644 78.6586 150.641C78.601 150.638 78.5445 150.624 78.4923 150.599C78.4402 150.574 78.3934 150.539 78.3548 150.497C78.3161 150.454 78.2862 150.404 78.2669 150.349L77.8683 149.239C77.8487 149.185 77.84 149.127 77.8428 149.069C77.8455 149.012 77.8596 148.955 77.8842 148.903C77.9089 148.85 77.9436 148.804 77.9864 148.765C78.0292 148.726 78.0792 148.696 78.1336 148.676C78.188 148.657 78.2456 148.649 78.3033 148.651C78.3609 148.654 78.4174 148.669 78.4695 148.693C78.5217 148.718 78.5684 148.753 78.6071 148.796C78.6458 148.838 78.6756 148.889 78.695 148.943L79.0947 150.061C79.132 150.17 79.1249 150.289 79.0751 150.393C79.0252 150.497 78.9366 150.577 78.8282 150.616Z" fill="#222A3B"/>
<path d="M61.6636 187.282C62.4039 184.874 64.1472 180.286 63.6228 170.117C63.5743 169.228 63.5969 168.335 63.6907 167.449C65.9115 167.258 69.3205 169.67 69.3205 169.67C69.3205 169.67 67.2255 182.446 61.6636 187.282Z" fill="#ED7D2B"/>
<path d="M71.8661 157.936C71.8661 157.936 66.1561 158.923 63.1777 162.553C60.1993 166.183 55.4048 171.313 54.2759 173.111C53.1469 174.908 49.9995 187.123 49.9995 187.123C49.9995 187.123 50.2068 187.515 51.0741 187.74C51.5508 187.873 52.0598 187.829 52.5066 187.616C52.5066 187.616 56.6719 180.486 58.24 176.925C58.8915 175.445 70.1573 169.584 74.3929 170.191C76.0561 170.438 71.8661 157.936 71.8661 157.936Z" fill="#F9A146"/>
<path d="M87.8008 144.786C87.8008 144.786 89.0346 144.929 89.686 144.526C90.3375 144.122 90.1586 143.858 90.1586 143.858C90.1586 143.858 87.8575 144.09 87.8008 144.786Z" fill="#FFB27D"/>
<path d="M77.4664 162.062C77.4664 162.062 75.0371 177.398 57.8022 181.862L55.9243 185.563L59.2235 186.121C59.2235 186.121 78.8409 180.437 78.5805 161.787L77.4664 162.062Z" fill="#FF4500"/>
<path d="M77.0185 159.393L76.1968 159.475V160.661L77.4059 161.919L78.5558 161.64V159.99L77.7292 159.393H77.0185Z" fill="#FF4500"/>
<path d="M73.7143 156.347C73.7143 156.347 72.8025 156.666 71.1875 157.936C71.1875 157.936 72.9938 161.769 76.8038 162.228C76.8038 162.228 76.7421 160.449 77.0184 159.39C77.0184 159.394 73.9142 158.411 73.7143 156.347Z" fill="#ED7D2B"/>
<path d="M77.0186 159.394C77.0186 159.394 78.8779 160.381 79.0148 161.918C79.0148 161.918 79.7045 160.798 79.5195 160.012C79.3761 159.363 79.0699 158.761 78.6299 158.263C78.6299 158.263 78.7397 159.283 77.0186 159.394Z" fill="#ED7D2B"/>
<path d="M176.324 149.48C164.086 155.988 161.845 174.361 169.373 187.017C171.456 177.146 176.355 171.802 176.355 171.802C173.261 193.106 183.294 205.899 183.294 205.899C202.522 186.912 194.522 164.268 194.522 164.268C200.444 173.135 199.179 181.41 199.179 181.41C212.784 163.307 197.073 149.854 197.073 149.854C183.294 146.776 176.324 149.48 176.324 149.48Z" fill="#F9A146"/>
<path d="M180.505 148.056C174.096 152.969 176.995 161.134 176.995 161.134C179.398 155.366 181.066 153.845 181.066 153.845C178.343 164.419 184.88 174.164 184.88 174.164C195.963 163.617 190.832 153.313 190.832 153.313C195.273 155.355 195.171 161.229 195.171 161.229C198.217 153.9 193.17 148.373 193.17 148.373C187.405 147.661 180.505 148.056 180.505 148.056Z" fill="#FF4500"/>
<path d="M185.951 110.879H162.663C158.564 110.879 154.594 112.315 151.443 114.936C148.291 117.558 146.157 121.2 145.411 125.23L139.925 154.792C139.889 154.988 139.911 155.189 139.989 155.372C140.066 155.555 140.196 155.711 140.361 155.821C140.527 155.931 140.721 155.989 140.92 155.99C141.118 155.99 141.313 155.932 141.478 155.822L185.951 126.49V110.879Z" fill="#FF4500"/>
<path d="M170.798 127.873C168.784 118.508 157.048 112.658 157.048 112.658C163.315 132.852 150.354 144.537 140.827 149.925L139.925 154.787C139.889 154.983 139.911 155.184 139.989 155.367C140.066 155.55 140.196 155.706 140.361 155.816C140.527 155.926 140.721 155.984 140.92 155.985C141.118 155.985 141.313 155.927 141.478 155.818L171.992 135.69C171.767 133.061 171.368 130.45 170.798 127.873Z" fill="#222A3B"/>
<path d="M185.951 110.879H209.24C213.339 110.879 217.309 112.315 220.46 114.936C223.611 117.558 225.746 121.2 226.492 125.23L231.976 154.792C232.013 154.988 231.991 155.189 231.914 155.372C231.836 155.555 231.707 155.711 231.541 155.821C231.376 155.931 231.182 155.99 230.983 155.99C230.784 155.99 230.59 155.932 230.424 155.822L185.951 126.49V110.879Z" fill="#FF4500"/>
<path d="M230.424 155.817C230.59 155.927 230.784 155.985 230.983 155.985C231.181 155.985 231.375 155.926 231.541 155.816C231.706 155.706 231.836 155.55 231.913 155.367C231.991 155.184 232.012 154.982 231.976 154.787L226.492 125.23C226.059 122.885 225.15 120.653 223.823 118.671C228.141 140.386 225.043 149.477 215.42 143.247C205.796 137.018 203.391 130.813 204.354 123.647C200.33 126.552 197.616 129.761 195.964 133.094L230.424 155.817Z" fill="#222A3B"/>
<path d="M176.529 147.747H195.373C205.848 137.271 222.798 103.847 222.798 67.3566C222.798 23.9134 185.95 3.75439 185.95 3.75439C185.95 3.75439 149.103 23.9134 149.103 67.3566C149.103 103.847 165.505 136.723 176.529 147.747Z" fill="#FF4500" fill-opacity="0.9"/>
<path d="M197.485 127.424C187.225 139.834 180.089 143.231 167.548 135.592C170.651 140.829 173.759 144.977 176.529 147.747H195.373C205.848 137.271 222.798 103.847 222.798 67.3566C222.798 23.9134 185.95 3.75439 185.95 3.75439C227.284 32.8189 215.428 104.996 197.485 127.424Z" fill="#F9A146"/>
<path d="M184.918 76.2637C196.58 76.2637 206.035 66.809 206.035 55.146C206.035 43.483 196.58 34.0283 184.918 34.0283C173.255 34.0283 163.8 43.483 163.8 55.146C163.8 66.809 173.255 76.2637 184.918 76.2637Z" fill="#222A3B"/>
<path d="M184.918 38.9063C185.758 38.9063 186.44 38.2247 186.44 37.3838C186.44 36.543 185.758 35.8613 184.918 35.8613C184.077 35.8613 183.395 36.543 183.395 37.3838C183.395 38.2247 184.077 38.9063 184.918 38.9063Z" fill="white"/>
<path d="M186.314 73.4856C186.638 72.7095 186.271 71.818 185.495 71.4945C184.719 71.171 183.827 71.5378 183.504 72.314C183.18 73.0901 183.547 73.9815 184.323 74.3051C185.099 74.6286 185.991 74.2617 186.314 73.4856Z" fill="white"/>
<path d="M167.156 56.6681C167.997 56.6681 168.678 55.9864 168.678 55.1456C168.678 54.3047 167.997 53.623 167.156 53.623C166.315 53.623 165.633 54.3047 165.633 55.1456C165.633 55.9864 166.315 56.6681 167.156 56.6681Z" fill="white"/>
<path d="M204.095 55.7305C204.415 54.9529 204.044 54.0631 203.266 53.7431C202.488 53.4231 201.599 53.794 201.279 54.5716C200.959 55.3491 201.33 56.2389 202.107 56.5589C202.885 56.879 203.775 56.508 204.095 55.7305Z" fill="white"/>
<path d="M195.597 65.5578C201.111 60.0437 201.111 51.1037 195.597 45.5897C190.083 40.0756 181.143 40.0756 175.629 45.5897C170.115 51.1037 170.115 60.0437 175.629 65.5578C181.143 71.0718 190.083 71.0718 195.597 65.5578Z" fill="#FF4500"/>
<path d="M171.498 55.5737C171.498 53.0987 172.149 50.6672 173.385 48.523C174.621 46.3787 176.399 44.5969 178.54 43.3561C180.682 42.1153 183.112 41.459 185.587 41.453C188.062 41.4471 190.495 42.0916 192.642 43.3221C191.061 42.2878 189.288 41.5814 187.428 41.2448C185.569 40.9083 183.661 40.9483 181.817 41.3627C179.973 41.777 178.231 42.5572 176.694 43.6569C175.158 44.7567 173.857 46.1538 172.87 47.7653C171.883 49.3768 171.23 51.17 170.948 53.0387C170.667 54.9074 170.764 56.8136 171.232 58.6443C171.701 60.4749 172.533 62.1929 173.677 63.6964C174.822 65.1999 176.257 66.4584 177.897 67.3972C175.931 66.1144 174.316 64.3613 173.199 62.2967C172.081 60.2321 171.496 57.9213 171.498 55.5737Z" fill="#FF4500"/>
<g style="mix-blend-mode:screen">
<path d="M173.922 59.5481C173.922 55.4645 175.545 51.5482 178.432 48.6606C181.32 45.773 185.236 44.1507 189.32 44.1503C189.486 44.1503 189.653 44.1503 189.813 44.159C187.592 43.2611 185.156 43.0369 182.808 43.5143C180.46 43.9917 178.305 45.1497 176.61 46.8439C174.916 48.538 173.758 50.6933 173.281 53.0411C172.803 55.3889 173.028 57.8253 173.926 60.0466C173.926 59.8813 173.922 59.7159 173.922 59.5481Z" fill="#8EB2E5"/>
</g>
<path d="M197.078 149.853H174.829C174.27 149.853 173.734 149.631 173.339 149.236C172.944 148.841 172.722 148.306 172.722 147.747C172.722 147.188 172.944 146.652 173.339 146.257C173.734 145.862 174.27 145.64 174.829 145.64H197.083C197.642 145.64 198.177 145.862 198.572 146.257C198.967 146.652 199.189 147.188 199.189 147.747C199.189 148.024 199.134 148.298 199.028 148.554C198.922 148.81 198.767 149.042 198.57 149.238C198.374 149.434 198.142 149.589 197.886 149.694C197.629 149.8 197.355 149.854 197.078 149.853Z" fill="#222A3B"/>
<path d="M197.078 145.64H196.718C196.991 145.942 197.171 146.317 197.235 146.719C197.3 147.122 197.246 147.534 197.081 147.907C196.915 148.279 196.645 148.596 196.304 148.818C195.962 149.04 195.563 149.158 195.156 149.158H173.261C173.458 149.378 173.699 149.553 173.968 149.672C174.238 149.792 174.529 149.854 174.824 149.853H197.078C197.637 149.853 198.172 149.631 198.567 149.236C198.962 148.841 199.184 148.306 199.184 147.747C199.184 147.188 198.962 146.652 198.567 146.257C198.172 145.862 197.637 145.64 197.078 145.64Z" fill="#222A3B"/>
<path d="M17.0854 238.952V238.933C17.0854 238.904 17.2495 238.88 17.4482 238.88H336.765C336.964 238.88 337.128 238.904 337.128 238.933V238.952C337.128 238.982 336.964 239.005 336.765 239.005H17.4482C17.2495 239.005 17.0854 238.986 17.0854 238.952Z" fill="#222A3B"/>
</svg>
